<svg width="91" height="86" viewBox="0 0 91 86" fill="none" xmlns="http://www.w3.org/2000/svg">
<g clip-path="url(#clip0_228_1212)">
<g clip-path="url(#clip1_228_1212)">
<path d="M64.8425 78.1614C63.0587 79.1489 61.03 79.5906 59.0029 79.4327C58.9846 79.4302 58.966 79.4339 58.95 79.4432C58.934 79.4525 58.9215 79.467 58.9145 79.4842C58.9075 79.5015 58.9063 79.5207 58.9112 79.5387C58.916 79.5567 58.9267 79.5726 58.9414 79.5838C61.3615 81.4497 64.3209 82.4572 67.3628 82.4509C69.7254 82.508 72.0213 81.6548 73.7864 80.0639C73.8304 80.019 73.8551 79.9583 73.8551 79.895C73.8551 79.8317 73.8304 79.771 73.7864 79.7261C70.7261 76.8279 67.9556 76.4411 64.8425 78.1614Z" fill="url(#paint0_linear_228_1212)"/>
<path d="M63.5146 72.143C63.5092 72.1625 63.5103 72.1833 63.5177 72.2021C63.5251 72.2208 63.5383 72.2364 63.5552 72.2463C63.5721 72.2562 63.5917 72.2598 63.6108 72.2565C63.63 72.2533 63.6475 72.2434 63.6605 72.2284C65.8432 69.8939 67.2338 66.8743 67.6188 63.6329C67.664 63.2587 67.6913 62.8823 67.7003 62.5051C66.3058 64.0073 64.8385 65.4335 63.3042 66.7781C63.7877 68.5223 63.8598 70.3632 63.5146 72.143Z" fill="url(#paint1_linear_228_1212)"/>
<path d="M57.6444 74.8066C57.6392 74.827 57.6415 74.8485 57.651 74.8674C57.6604 74.8862 57.6764 74.9013 57.6961 74.9098C57.7158 74.9183 57.738 74.9198 57.7587 74.914C57.7794 74.9082 57.7974 74.8955 57.8094 74.878C59.3998 73.1093 60.5305 70.9944 61.1063 68.7113C59.9324 69.6044 58.754 70.4528 57.5894 71.2477C57.8092 72.4229 57.8278 73.6254 57.6444 74.8066Z" fill="url(#paint2_linear_228_1212)"/>
<path d="M89.1803 52.7013C85.2507 52.1398 82.8903 53.3697 81.4002 56.4313C80.6936 57.8736 79.6603 59.1258 78.3849 60.0857C79.3969 57.9803 80.2093 55.7823 80.8112 53.5213C83.6611 53.1045 86.2987 51.7557 88.3231 49.6798C89.9339 48.0936 90.8907 45.9465 91 43.6725C90.9994 43.6428 90.993 43.6136 90.9812 43.5865C90.9693 43.5594 90.9523 43.5349 90.931 43.5146C90.9097 43.4942 90.8846 43.4784 90.8572 43.468C90.8298 43.4576 90.8007 43.4529 90.7714 43.4541C86.8155 43.619 84.7057 45.2367 83.7782 48.5434C83.2667 50.3603 82.265 51.9963 80.886 53.2673C82.3026 47.6115 82.6383 41.7331 81.875 35.9494C83.9313 34.3924 85.4374 32.2044 86.1693 29.7103C86.7937 27.7544 86.6617 25.6309 85.8001 23.7699C85.7877 23.7456 85.7706 23.7241 85.7497 23.7068C85.7288 23.6894 85.7047 23.6766 85.6788 23.6691C85.6528 23.6616 85.6256 23.6596 85.5989 23.6631C85.5721 23.6666 85.5464 23.6756 85.5232 23.6896C82.4464 25.5257 81.4354 27.7361 82.0684 30.7576C82.4 32.3388 82.3136 33.9807 81.8178 35.5171C81.5219 33.2509 81.0351 31.0145 80.3629 28.8324C79.5243 26.1601 78.3624 23.6034 76.9036 21.2208C77.7029 19.4192 77.9019 17.4028 77.4707 15.4764C77.1886 14.1115 76.4664 12.8807 75.418 11.978C75.396 13.7383 75.374 15.7616 75.3476 17.9363C76.039 18.8067 76.5112 19.8345 76.7234 20.9311C75.9967 19.7376 75.1465 18.6261 74.1872 17.6155L73.9982 18.275L74.6268 19.2866C82.8771 30.1827 82.8683 48.2136 75.7257 60.5491C71.4986 67.9257 64.787 73.5072 56.825 76.2671C56.5955 75.9547 56.298 75.7002 55.9558 75.5232C55.6135 75.3462 55.2356 75.2516 54.8514 75.2466C54.2292 75.276 53.6355 75.5201 53.1687 75.9382C52.7019 76.3564 52.39 76.9237 52.2845 77.5461C51.4521 77.6855 50.6094 77.7511 49.7659 77.7422C49.5856 76.8153 49.1197 75.8437 48.0077 75.514H42.9528C41.854 75.8393 41.3836 76.8108 41.1946 77.7422C40.3496 77.7511 39.5054 77.6855 38.6716 77.5461C38.5661 76.9237 38.2542 76.3564 37.7874 75.9382C37.3206 75.5201 36.7269 75.276 36.1047 75.2466C35.7207 75.2526 35.3431 75.3477 35.001 75.5246C34.6589 75.7015 34.3613 75.9555 34.1311 76.2671C26.1697 73.5061 19.4584 67.9249 15.2304 60.5491C8.09216 48.2136 8.07898 30.1827 16.3293 19.2866L16.9843 18.275L16.7908 17.6155C15.8306 18.6231 14.9789 19.7316 14.2503 20.9222C14.4645 19.8262 14.9365 18.7989 15.626 17.9274C15.5997 15.7527 15.5777 13.7294 15.5557 11.9691C14.5179 12.8746 13.8053 14.1033 13.5294 15.463C13.1011 17.39 13.3016 19.4059 14.1008 21.2074C12.6387 23.5888 11.4751 26.1457 10.6372 28.819C9.96872 31.0019 9.48348 33.2381 9.18664 35.5038C8.68879 33.9679 8.60083 32.3257 8.9317 30.7442C9.56465 27.7228 8.57127 25.5123 5.47684 23.6763C5.454 23.6624 5.42858 23.6534 5.40216 23.6499C5.37573 23.6464 5.34889 23.6485 5.3233 23.656C5.29772 23.6636 5.27394 23.6764 5.25346 23.6937C5.23299 23.7109 5.21626 23.7323 5.20432 23.7565C4.3404 25.6167 4.20682 27.7405 4.8307 29.697C5.56384 32.1916 7.07149 34.3797 9.1295 35.936C8.3659 41.7165 8.7001 47.5918 10.1141 53.245C8.73197 51.9759 7.72845 50.3393 7.21746 48.5211C6.2944 45.2367 4.18896 43.619 0.224224 43.4318C0.195055 43.43 0.165822 43.4343 0.13838 43.4445C0.110938 43.4547 0.0858835 43.4705 0.0648075 43.4911C0.0437316 43.5116 0.027094 43.5363 0.0159471 43.5637C0.00480021 43.5911 -0.000611649 43.6206 5.48719e-05 43.6502C0.0991901 45.9322 1.05531 48.0894 2.67252 49.6798C4.69448 51.7622 7.3324 53.1175 10.1844 53.5391C10.7859 55.8009 11.5999 57.9991 12.6151 60.1035C11.3397 59.1437 10.3065 57.8914 9.59982 56.4492C8.10535 53.3876 5.74497 52.1576 1.81539 52.7191C1.78637 52.7234 1.75849 52.7336 1.73341 52.749C1.70832 52.7644 1.68654 52.7848 1.66933 52.8089C1.65213 52.833 1.63985 52.8603 1.63323 52.8893C1.62661 52.9182 1.62578 52.9483 1.63078 52.9776C2.1417 55.1934 3.46485 57.1292 5.33179 58.3922C7.5714 59.9788 10.239 60.8269 12.9712 60.821C14.1363 63.1052 15.5518 65.249 17.1908 67.2116C17.3227 67.3675 17.4546 67.5101 17.582 67.6572C15.7652 67.0132 14.1723 65.8473 12.9975 64.3015C10.9404 61.5964 8.38666 60.8655 4.64609 62.198C4.59074 62.2199 4.54622 62.2632 4.52232 62.3183C4.49842 62.3735 4.49709 62.436 4.51862 62.4922C5.4484 64.5604 7.11858 66.1932 9.19104 67.06C11.8332 68.2394 14.7841 68.5072 17.5908 67.8221C17.609 67.8171 17.625 67.806 17.6361 67.7906C17.6473 67.7752 17.653 67.7565 17.6524 67.7374C19.7315 70.1459 22.0932 72.2875 24.6852 74.1146C22.7272 73.7386 20.9052 72.835 19.4106 71.4987C16.615 68.9986 13.6964 68.7401 9.89431 70.9817C9.86648 70.9986 9.84228 71.021 9.82316 71.0476C9.80403 71.0741 9.79037 71.1043 9.78299 71.1363C9.77561 71.1683 9.77466 71.2015 9.78019 71.2339C9.78572 71.2663 9.79763 71.2972 9.8152 71.3249C11.2505 73.3793 13.4038 74.8023 15.837 75.3045C18.931 76.0226 22.1715 75.6988 25.0676 74.382C27.6901 76.1785 30.5199 77.6422 33.4937 78.7405C33.6827 80.2156 34.7816 81.343 36.131 81.343C36.5523 81.3348 36.965 81.221 37.3323 81.0119C37.6997 80.8027 38.0103 80.5046 38.2365 80.1442C39.4213 80.4184 40.6223 80.6148 41.832 80.7325C43.0364 82.5864 45.511 86 45.511 86C45.511 86 47.9901 82.5864 49.19 80.7325C50.4012 80.615 51.6037 80.4185 52.79 80.1442C53.0154 80.5043 53.3253 80.8022 53.6919 81.0114C54.0585 81.2205 54.4704 81.3345 54.891 81.343C56.2097 81.343 57.3217 80.2156 57.5283 78.7405C60.5021 77.6422 63.332 76.1785 65.9545 74.382C68.8507 75.6985 72.091 76.0223 75.185 75.3045C77.6187 74.8004 79.7727 73.378 81.2112 71.3249C81.2286 71.297 81.2403 71.2658 81.2455 71.2332C81.2507 71.2006 81.2493 71.1673 81.2415 71.1353C81.2337 71.1032 81.2196 71.0731 81.2001 71.0467C81.1805 71.0203 81.1559 70.9982 81.1277 70.9817C77.3344 68.7535 74.407 68.9986 71.6159 71.4987C70.1212 72.835 68.2992 73.7386 66.3413 74.1146C68.9332 72.2875 71.295 70.1459 73.3741 67.7374C73.3723 67.7561 73.3771 67.7748 73.3875 67.7902C73.398 67.8057 73.4134 67.817 73.4312 67.8221C76.2296 68.5011 79.1702 68.2335 81.8046 67.06C83.8845 66.1959 85.5615 64.5609 86.4946 62.4877C86.5058 62.4597 86.5112 62.4296 86.5106 62.3994C86.51 62.3692 86.5033 62.3395 86.491 62.3119C86.4786 62.2844 86.4609 62.2597 86.4389 62.2394C86.4168 62.219 86.3909 62.2035 86.3627 62.1936C82.6222 60.8566 80.0684 61.5919 78.0113 64.297C76.8375 65.8437 75.2443 67.0099 73.4268 67.6527C73.5587 67.5012 73.6905 67.3586 73.818 67.2071C75.4536 65.2453 76.8661 63.1031 78.0289 60.821C80.7619 60.8235 83.4293 59.9723 85.6683 58.3833C87.5345 57.1204 88.8563 55.1843 89.3649 52.9687C89.3719 52.9387 89.3726 52.9075 89.3669 52.8772C89.3612 52.8469 89.3492 52.8182 89.3318 52.7929C89.3143 52.7677 89.2918 52.7465 89.2657 52.7307C89.2396 52.7149 89.2105 52.7048 89.1803 52.7013Z" fill="url(#paint3_linear_228_1212)"/>
<path d="M74.6494 50.0224C74.4417 51.8519 73.8728 53.6213 72.9761 55.2266C74.0072 56.6952 74.6234 58.4176 74.7589 60.2105C74.7591 60.2282 74.7652 60.2453 74.7762 60.2591C74.7872 60.2729 74.8025 60.2826 74.8197 60.2866C74.8368 60.2907 74.8547 60.2888 74.8707 60.2814C74.8867 60.274 74.8997 60.2614 74.9078 60.2457C76.2778 57.7003 76.7795 54.7728 76.3358 51.9128C76.1264 50.4594 75.5786 49.0763 74.737 47.8763C74.7063 48.9516 74.68 49.6963 74.6494 50.0224Z" fill="url(#paint4_linear_228_1212)"/>
<path d="M69.5945 66.8413C69.5907 66.8599 69.5936 66.8793 69.6027 66.896C69.6118 66.9127 69.6265 66.9256 69.6443 66.9326C69.6621 66.9395 69.6818 66.94 69.6999 66.934C69.7181 66.9279 69.7335 66.9157 69.7434 66.8995C71.5469 64.5684 72.5281 61.7136 72.5357 58.7746C72.5421 58.0924 72.4771 57.4113 72.3417 56.7423C71.2301 58.4484 69.9713 60.0556 68.5796 61.5456C69.3958 63.1868 69.7467 65.0174 69.5945 66.8413Z" fill="url(#paint5_linear_228_1212)"/>
<path d="M80.7024 27.4176C80.7015 27.4317 80.7055 27.4457 80.7136 27.4574C80.7217 27.469 80.7335 27.4776 80.7471 27.4818C80.7607 27.4859 80.7754 27.4854 80.7887 27.4804C80.8019 27.4753 80.8131 27.4659 80.8204 27.4537C82.104 25.5992 82.7418 23.377 82.6362 21.1274C82.5938 19.3768 81.8866 17.7072 80.657 16.455C80.6413 16.4383 80.6223 16.425 80.6012 16.4159C80.5801 16.4068 80.5574 16.4021 80.5344 16.4021C80.5115 16.4021 80.4887 16.4068 80.4676 16.4159C80.4466 16.425 80.4276 16.4383 80.4119 16.455C78.3919 18.8093 78.2012 20.8698 79.5721 23.1157C80.3629 24.4089 80.7558 25.9045 80.7024 27.4176Z" fill="url(#paint6_linear_228_1212)"/>
<path d="M75.1738 30.6752L75.2752 30.6969C76.8538 30.9956 78.3066 31.7204 79.4571 32.7834C79.4667 32.7938 79.4798 32.8007 79.4942 32.8031C79.5085 32.8056 79.5234 32.8033 79.5362 32.7967C79.549 32.7902 79.5591 32.7797 79.5648 32.767C79.5705 32.7543 79.5715 32.7402 79.5676 32.7269C79.0285 30.5132 77.734 28.5279 75.8831 27.076C75.668 26.9057 75.4435 26.7461 75.2107 26.5979C75.2153 27.9454 75.1969 29.319 75.1738 30.6752Z" fill="url(#paint7_linear_228_1212)"/>
<path d="M75.1738 36.9155C75.6349 37.4744 76.1871 37.9428 76.8048 38.2985C78.1038 39.0779 79.1584 40.2373 79.8398 41.635C79.8462 41.6474 79.8562 41.6573 79.8684 41.6634C79.8805 41.6695 79.8941 41.6715 79.9074 41.669C79.9206 41.6665 79.9328 41.6597 79.9422 41.6496C79.9516 41.6395 79.9577 41.6265 79.9596 41.6126C80.1805 39.2753 79.6648 36.9265 78.4914 34.9261C77.7307 33.5918 76.5918 32.5399 75.2338 31.9175C75.2124 33.6104 75.1952 35.2899 75.1738 36.9155Z" fill="url(#paint8_linear_228_1212)"/>
<path d="M76.62 40.8854C75.2574 43.4451 75.2141 45.4208 76.8838 47.2166C77.8427 48.2429 78.4861 49.5306 78.7352 50.9222C78.7352 50.9374 78.7412 50.9519 78.7517 50.9626C78.7623 50.9733 78.7766 50.9793 78.7915 50.9793C78.8064 50.9793 78.8207 50.9733 78.8312 50.9626C78.8418 50.9519 78.8477 50.9374 78.8477 50.9222C79.6429 48.9661 79.7857 46.7997 79.2543 44.7535C78.6141 42.2948 77.5933 41.6801 76.8363 40.802C76.78 40.7537 76.6503 40.8063 76.62 40.8854Z" fill="url(#paint9_linear_228_1212)"/>
<path d="M76.4925 25.6464C76.1754 24.6991 75.7297 23.8221 75.1738 23.0515C75.1738 23.6667 75.1738 24.2819 75.1738 24.9017C75.6231 25.1034 76.0484 25.3755 76.4388 25.7111C76.446 25.7118 76.4533 25.7106 76.46 25.7076C76.4668 25.7046 76.473 25.6999 76.4781 25.6937C76.4832 25.6875 76.4871 25.6801 76.4896 25.6719C76.4921 25.6638 76.4931 25.655 76.4925 25.6464Z" fill="url(#paint10_linear_228_1212)"/>
<path d="M84.4071 39.4702C83.8743 41.866 83.795 43.7537 83.5264 44.6603C83.5264 44.7304 83.5484 44.7961 83.6144 44.7654C85.9687 43.6831 87.8999 41.861 89.1104 39.5797C90.093 37.8301 90.3715 35.7749 89.8899 33.829C89.882 33.8037 89.869 33.7803 89.8517 33.7601C89.8344 33.7399 89.8132 33.7233 89.7894 33.7115C89.7655 33.6996 89.7395 33.6927 89.7129 33.691C89.6863 33.6894 89.6596 33.6931 89.6345 33.702C86.2788 34.8583 85.0633 36.5314 84.4071 39.4702Z" fill="url(#paint11_linear_228_1212)"/>
<path d="M32.0153 79.4333C29.9856 79.5914 27.9543 79.1497 26.1683 78.1619C23.047 76.4417 20.273 76.8284 17.2176 79.7177C17.1947 79.7394 17.1764 79.7655 17.1639 79.7946C17.1515 79.8236 17.145 79.855 17.145 79.8867C17.145 79.9183 17.1515 79.9497 17.1639 79.9787C17.1764 80.0078 17.1947 80.0339 17.2176 80.0556C18.9771 81.646 21.2678 82.5022 23.6273 82.4515C26.6732 82.4588 29.6366 81.4511 32.0592 79.5844C32.0726 79.574 32.0826 79.5598 32.0878 79.5436C32.093 79.5274 32.0932 79.5099 32.0885 79.4936C32.0837 79.4772 32.0742 79.4627 32.0611 79.452C32.0481 79.4412 32.0321 79.4347 32.0153 79.4333Z" fill="url(#paint12_linear_228_1212)"/>
<path d="M27.347 72.2284C27.3601 72.2434 27.3777 72.2533 27.3968 72.2565C27.416 72.2598 27.4356 72.2562 27.4526 72.2463C27.4695 72.2364 27.4828 72.2208 27.4901 72.2021C27.4975 72.1833 27.4986 72.1625 27.4933 72.143C27.1445 70.3639 27.2139 68.5231 27.6955 66.7781C26.1611 65.4333 24.6938 64.0071 23.2993 62.5051C23.3084 62.8823 23.3357 63.2587 23.381 63.6329C23.7668 66.8743 25.1601 69.8939 27.347 72.2284Z" fill="url(#paint13_linear_228_1212)"/>
<path d="M33.3554 74.8235C33.1705 73.6373 33.1891 72.4294 33.4105 71.2491C32.2458 70.4538 31.0674 69.6049 29.8936 68.7113C30.4693 70.9957 31.6 73.1119 33.1904 74.8816C33.2021 74.8969 33.2187 74.9082 33.2375 74.9137C33.2563 74.9192 33.2765 74.9187 33.295 74.9122C33.3135 74.9057 33.3294 74.8935 33.3403 74.8776C33.3511 74.8616 33.3565 74.8426 33.3554 74.8235Z" fill="url(#paint14_linear_228_1212)"/>
<path d="M16.2347 60.2268C16.3708 58.4316 16.9892 56.7069 18.0242 55.2363C17.1287 53.6279 16.5622 51.8562 16.3579 50.0252C16.3271 49.6987 16.3007 48.953 16.2699 47.8763C15.4251 49.0779 14.8753 50.4628 14.6651 51.9182C14.2197 54.7819 14.7233 57.7133 16.0984 60.2621C16.1081 60.273 16.1206 60.281 16.1345 60.2853C16.1484 60.2895 16.1632 60.2898 16.1773 60.2862C16.1914 60.2825 16.2042 60.2751 16.2144 60.2646C16.2245 60.2541 16.2315 60.241 16.2347 60.2268Z" fill="url(#paint15_linear_228_1212)"/>
<path d="M21.4212 66.8226C21.2653 65.0025 21.6107 63.1745 22.4204 61.5344C21.0289 60.0482 19.77 58.4448 18.6578 56.7423C18.5227 57.4103 18.4579 58.0905 18.4643 58.7718C18.4758 61.7081 19.4595 64.5591 21.2637 66.8852C21.2721 66.906 21.2884 66.9226 21.3091 66.9314C21.3297 66.9402 21.3531 66.9405 21.374 66.9322C21.3949 66.9239 21.4116 66.9077 21.4204 66.8871C21.4293 66.8666 21.4296 66.8434 21.4212 66.8226Z" fill="url(#paint16_linear_228_1212)"/>
<path d="M10.745 27.3978C10.6947 25.8918 11.0871 24.404 11.874 23.1174C13.2344 20.8574 13.0484 18.8099 11.0352 16.455C11.0195 16.4383 11.0005 16.425 10.9794 16.4159C10.9584 16.4068 10.9357 16.4021 10.9127 16.4021C10.8898 16.4021 10.8671 16.4068 10.846 16.4159C10.825 16.425 10.806 16.4383 10.7903 16.455C9.5591 17.6991 8.84901 19.3636 8.80422 21.1105C8.69638 23.361 9.33368 25.5844 10.618 27.4384C10.6234 27.4552 10.6353 27.4692 10.651 27.4772C10.6667 27.4853 10.685 27.4868 10.7019 27.4814C10.7187 27.476 10.7327 27.4641 10.7408 27.4485C10.7489 27.4328 10.7504 27.4145 10.745 27.3978Z" fill="url(#paint17_linear_228_1212)"/>
<path d="M11.5692 32.3268C12.7127 31.269 14.1566 30.5478 15.7256 30.2507L15.8263 30.229C15.8263 28.8796 15.7851 27.5128 15.7714 26.1547C15.54 26.3021 15.3169 26.4609 15.1031 26.6304C13.2635 28.075 11.9769 30.0505 11.4411 32.2532C11.4307 32.2693 11.4276 32.2886 11.4323 32.3068C11.437 32.3251 11.4492 32.3408 11.4662 32.3506C11.4832 32.3603 11.5036 32.3633 11.5229 32.3588C11.5423 32.3544 11.5589 32.3428 11.5692 32.3268Z" fill="url(#paint18_linear_228_1212)"/>
<path d="M11.0384 41.6124C11.0404 41.6264 11.0465 41.6394 11.0558 41.6496C11.0652 41.6597 11.0774 41.6665 11.0906 41.669C11.1039 41.6715 11.1176 41.6695 11.1297 41.6634C11.1418 41.6573 11.1518 41.6474 11.1583 41.6349C11.8379 40.229 12.893 39.0621 14.1944 38.2773C14.8096 37.9314 15.3619 37.4744 15.826 36.927C15.826 35.3202 15.7874 33.6368 15.766 31.9175C14.4074 32.5414 13.2681 33.5957 12.5072 34.9331C11.338 36.9317 10.8222 39.2772 11.0384 41.6124Z" fill="url(#paint19_linear_228_1212)"/>
<path d="M12.2578 50.9449C12.5073 49.5491 13.1517 48.2575 14.112 47.2282C15.7886 45.4271 15.741 43.4454 14.3806 40.8781C14.3373 40.7988 14.2203 40.7459 14.1597 40.8164C13.4059 41.6971 12.3791 42.3049 11.7379 44.7797C11.2114 46.8347 11.3636 49.0085 12.1712 50.9669C12.1779 50.9724 12.1858 50.9762 12.1943 50.978C12.2027 50.9799 12.2114 50.9797 12.2198 50.9776C12.2282 50.9755 12.236 50.9714 12.2426 50.9658C12.2491 50.9601 12.2544 50.953 12.2578 50.9449Z" fill="url(#paint20_linear_228_1212)"/>
<path d="M14.1217 25.7111C14.5121 25.3755 14.9375 25.1034 15.3867 24.9017C15.3867 24.2772 15.3867 23.6621 15.3867 23.0515C14.8308 23.8221 14.3851 24.6991 14.068 25.6464C14.0675 25.655 14.0684 25.6638 14.0709 25.6719C14.0734 25.6801 14.0774 25.6875 14.0825 25.6937C14.0876 25.6999 14.0937 25.7046 14.1005 25.7076C14.1073 25.7106 14.1145 25.7118 14.1217 25.7111Z" fill="url(#paint21_linear_228_1212)"/>
<path d="M7.37745 44.7654C7.44335 44.7961 7.48728 44.7304 7.46971 44.6603C7.21491 43.7537 7.13144 41.8659 6.59108 39.4702C5.9409 36.5313 4.72401 34.8582 1.36327 33.7019C1.3385 33.6931 1.31218 33.6894 1.28594 33.6911C1.25969 33.6927 1.23406 33.6997 1.21062 33.7116C1.18718 33.7235 1.16642 33.7401 1.14961 33.7602C1.1328 33.7804 1.12029 33.8038 1.11286 33.8289C0.627959 35.7741 0.904432 37.8304 1.88605 39.5797C3.09724 41.8614 5.02657 43.6833 7.37745 44.7654Z" fill="url(#paint22_linear_228_1212)"/>
<path d="M72.6572 4.92583C65.5915 3.60101 45.2799 0 45.2799 0C45.2799 0 24.9683 3.60101 17.9026 4.92583C17.1878 5.05839 16.5426 5.44393 16.0819 6.01381C15.6212 6.58369 15.3748 7.30093 15.3866 8.03781C15.5357 17.2182 15.7855 47.4044 16.0178 50.0629C17.1048 62.3642 41.2079 77.5773 45.2799 77.5773C49.3518 77.5773 73.4505 62.3731 74.5419 50.0718C74.7786 47.4044 75.0241 17.2271 75.1731 8.0467C75.1871 7.3083 74.9416 6.58894 74.4807 6.01721C74.0198 5.44547 73.3734 5.05863 72.6572 4.92583ZM72.2408 49.405C71.2589 60.5192 50.3863 74.1097 45.2799 75.2211C40.1735 74.1097 19.3008 60.5014 18.319 49.405C18.113 47.0621 17.7711 12.1056 17.7316 7.76662C17.7303 7.64082 17.774 7.5188 17.8546 7.42316C17.9352 7.32752 18.0472 7.26475 18.17 7.24648L45.293 2.38289L72.4073 7.24648C72.5293 7.26648 72.6403 7.32975 72.7206 7.425C72.8008 7.52026 72.8452 7.64132 72.8456 7.76662C72.7887 12.1056 72.4468 47.0621 72.2408 49.405Z" fill="url(#paint23_linear_228_1212)"/>
<path d="M72.7942 49.1595C71.8077 60.2487 50.835 73.8042 45.7042 74.9131C40.5733 73.8042 19.6007 60.2266 18.6141 49.1595C18.4071 46.8175 18.0636 11.944 18.024 7.61036C18.0228 7.48534 18.0668 7.36417 18.1479 7.26948C18.2289 7.17479 18.3414 7.11305 18.4644 7.09582L45.7174 2.21655L72.9748 7.09582C73.097 7.11481 73.2084 7.17704 73.2892 7.27135C73.3699 7.36565 73.4146 7.48585 73.4152 7.61036C73.3448 11.944 73.0012 46.8175 72.7942 49.1595ZM72.7942 49.1595C71.8077 60.2487 50.835 73.8087 45.7042 74.9176C40.5733 73.8087 19.6007 60.231 18.6141 49.1595C18.4071 46.8219 18.0636 11.944 18.024 7.61479C18.0226 7.48927 18.0665 7.36752 18.1475 7.2721C18.2285 7.17668 18.3411 7.11405 18.4644 7.09582L45.7174 2.24317L72.9616 7.07807C73.0841 7.09803 73.1957 7.16116 73.2763 7.2562C73.357 7.35124 73.4015 7.47203 73.402 7.59705C73.3448 11.9263 73.0012 46.8042 72.7942 49.1418V49.1595ZM72.7942 49.1595C71.8077 60.2487 50.835 73.8042 45.7042 74.9131C40.5733 73.8042 19.6007 60.2266 18.6141 49.1595C18.4071 46.8175 18.0636 11.944 18.024 7.61036C18.0228 7.48534 18.0668 7.36417 18.1479 7.26948C18.2289 7.17479 18.3414 7.11305 18.4644 7.09582L45.7174 2.21655L72.9748 7.09582C73.097 7.11481 73.2084 7.17704 73.2892 7.27135C73.3699 7.36565 73.4146 7.48585 73.4152 7.61036C73.3448 11.944 73.0012 46.8175 72.7942 49.1595Z" fill="#050706"/>
<path d="M50.5554 39.8958C50.5554 41.683 49.766 42.5543 48.2047 42.5543C47.6124 42.5793 47.0284 42.4064 46.5414 42.062C46.0545 41.7176 45.6914 41.2205 45.5074 40.6465C45.3232 40.1997 45.1215 38.9442 44.8934 36.9514C44.843 36.0968 44.6331 35.2597 44.275 34.4851C43.9596 33.97 43.5019 33.5612 42.9593 33.31C42.2854 32.9972 41.5506 32.8445 40.8103 32.8632H39.2314V40.642C39.2162 40.9224 39.2951 41.1997 39.4551 41.4284C39.5864 41.556 39.7412 41.6561 39.9105 41.7228C40.0798 41.7895 40.2604 41.8215 40.4419 41.8171L42.3102 41.9109V42.5498H33.8501V41.902L35.2316 41.8573C35.5797 41.8665 35.9172 41.7348 36.1702 41.4909C36.3565 41.2491 36.4556 40.9494 36.4508 40.642V25.004C36.4553 24.8552 36.4282 24.7071 36.3715 24.5698C36.3147 24.4326 36.2296 24.3094 36.1219 24.2087C35.8153 23.9573 35.4435 23.802 35.0518 23.7619C34.7097 23.7038 33.8501 23.677 33.8501 23.677V23.0515H43.2838C44.3498 23.0625 45.3838 23.4245 46.2311 24.0836C46.7658 24.5092 47.2008 25.0508 47.5042 25.6691C47.8077 26.2874 47.9721 26.9669 47.9854 27.658C47.9979 28.4627 47.7783 29.2535 47.3538 29.9322C46.9859 30.5787 46.4901 31.1401 45.8977 31.5809C45.196 32.126 44.3013 32.3539 43.1567 32.5371C43.9793 32.7369 44.7575 33.0931 45.4504 33.587C45.9325 33.9248 46.3317 34.3713 46.617 34.8917C47.0346 35.7376 47.33 36.6405 47.4942 37.5725C47.7617 38.7118 47.7398 39.592 47.8976 40.079C47.9509 40.316 48.0841 40.5263 48.2741 40.6733C48.4641 40.8203 48.6988 40.8946 48.9371 40.8833C49.1049 40.8681 49.2649 40.8039 49.3979 40.6986C49.5309 40.5932 49.6313 40.451 49.687 40.289C49.7448 40.152 49.7903 40.0099 49.823 39.8646L50.5554 39.8958ZM39.2226 31.9294H40.8278C42.3584 31.9294 43.4066 31.639 44.2706 31.0626C45.1346 30.4863 45.5864 29.4586 45.5864 27.9797C45.6257 27.148 45.4582 26.3197 45.0995 25.5715C44.8231 25.0264 44.3686 24.5966 43.8145 24.3562C43.0703 24.1103 42.2894 23.9999 41.5076 24.03C40.4857 24.03 39.8498 24.1015 39.6086 24.2489C39.486 24.3237 39.3865 24.432 39.3214 24.5616C39.2562 24.6911 39.2281 24.8367 39.2402 24.9817L39.2226 31.9294Z" fill="url(#paint24_linear_228_1212)"/>
<path d="M55.0468 36.8599L55.2451 34.6993H56.1792L56.2674 41.5135H55.4346C55.038 38.8992 54.7075 37.92 53.3195 36.8374C52.1645 35.896 50.7313 35.38 49.2525 35.3731C48.1996 35.3894 47.1817 35.7606 46.3575 36.4287C45.4329 37.1873 44.7491 38.2079 44.3923 39.3619C43.9282 40.6226 43.6961 42.3969 43.6961 44.6848C43.6961 46.9038 43.9282 48.6392 44.3923 49.8909C44.7493 50.987 45.4199 51.9492 46.3179 52.6534C47.1604 53.2574 48.1698 53.5721 49.1996 53.5518C50.6934 53.5518 51.9051 53.462 52.6498 52.5456C53.3944 51.6293 53.3372 50.3401 53.3372 49.0015V47.5955C53.3438 47.4661 53.3172 47.3371 53.26 47.2213C53.2029 47.1055 53.1171 47.0069 53.0111 46.9352C52.6654 46.715 52.2685 46.5925 51.861 46.5804L50.3408 46.531V45.7943H57.5893V46.5894L57.1883 46.6208C56.8225 46.6243 56.4663 46.7402 56.166 46.9532C56.0628 47.0428 55.9813 47.1555 55.9278 47.2825C55.8743 47.4095 55.8503 47.5474 55.8576 47.6854V54.5221H55.0644L54.496 52.2761C53.5795 53.1745 53.0507 53.6911 52.0153 54.0998C51.1505 54.4301 50.2271 54.5709 49.3054 54.5131C47.7406 54.5237 46.2035 54.0931 44.8638 53.2688C43.4918 52.4257 42.3742 51.2134 41.6339 49.7651C40.8517 48.1751 40.4443 46.4209 40.4443 44.6421C40.4443 42.8633 40.8517 41.1091 41.6339 39.5191C42.3934 38.0509 43.5178 36.8117 44.8946 35.9256C46.1321 35.0751 47.5841 34.6072 49.0762 34.578C49.9267 34.566 50.773 34.7012 51.579 34.9778C52.8197 35.4274 53.9882 36.0616 55.0468 36.8599Z" fill="url(#paint25_linear_228_1212)"/>
</g>
</g>
<defs>
<linearGradient id="paint0_linear_228_1212" x1="-19.6831" y1="37.3019" x2="69.0639" y2="79.7621" gradientUnits="userSpaceOnUse">
<stop stop-color="#BDA976"/>
<stop offset="0.44" stop-color="#EDECBB"/>
<stop offset="1" stop-color="#C1953E"/>
</linearGradient>
<linearGradient id="paint1_linear_228_1212" x1="-13.3491" y1="27.3369" x2="74.4771" y2="67.9828" gradientUnits="userSpaceOnUse">
<stop stop-color="#BDA976"/>
<stop offset="0.44" stop-color="#EDECBB"/>
<stop offset="1" stop-color="#C1953E"/>
</linearGradient>
<linearGradient id="paint2_linear_228_1212" x1="-21.4792" y1="33.6667" x2="69.828" y2="79.0802" gradientUnits="userSpaceOnUse">
<stop stop-color="#BDA976"/>
<stop offset="0.44" stop-color="#EDECBB"/>
<stop offset="1" stop-color="#C1953E"/>
</linearGradient>
<linearGradient id="paint3_linear_228_1212" x1="-9.94695" y1="16.4969" x2="78.9451" y2="58.9642" gradientUnits="userSpaceOnUse">
<stop stop-color="#BDA976"/>
<stop offset="0.44" stop-color="#EDECBB"/>
<stop offset="1" stop-color="#C1953E"/>
</linearGradient>
<linearGradient id="paint4_linear_228_1212" x1="-8.2529" y1="13.6193" x2="80.0747" y2="56.1472" gradientUnits="userSpaceOnUse">
<stop stop-color="#BDA976"/>
<stop offset="0.44" stop-color="#EDECBB"/>
<stop offset="1" stop-color="#C1953E"/>
</linearGradient>
<linearGradient id="paint5_linear_228_1212" x1="-14.25" y1="20.854" x2="76.24" y2="65.0213" gradientUnits="userSpaceOnUse">
<stop stop-color="#BDA976"/>
<stop offset="0.44" stop-color="#EDECBB"/>
<stop offset="1" stop-color="#C1953E"/>
</linearGradient>
<linearGradient id="paint6_linear_228_1212" x1="3.06114" y1="-15.4703" x2="94.2305" y2="28.8903" gradientUnits="userSpaceOnUse">
<stop stop-color="#BDA976"/>
<stop offset="0.44" stop-color="#EDECBB"/>
<stop offset="1" stop-color="#C1953E"/>
</linearGradient>
<linearGradient id="paint7_linear_228_1212" x1="-1.89679" y1="-6.54222" x2="88.6538" y2="39.9291" gradientUnits="userSpaceOnUse">
<stop stop-color="#BDA976"/>
<stop offset="0.44" stop-color="#EDECBB"/>
<stop offset="1" stop-color="#C1953E"/>
</linearGradient>
<linearGradient id="paint8_linear_228_1212" x1="0.942673" y1="-2.16124" x2="88.5859" y2="38.3063" gradientUnits="userSpaceOnUse">
<stop stop-color="#BDA976"/>
<stop offset="0.44" stop-color="#EDECBB"/>
<stop offset="1" stop-color="#C1953E"/>
</linearGradient>
<linearGradient id="paint9_linear_228_1212" x1="-3.51355" y1="5.9144" x2="84.003" y2="47.6782" gradientUnits="userSpaceOnUse">
<stop stop-color="#BDA976"/>
<stop offset="0.44" stop-color="#EDECBB"/>
<stop offset="1" stop-color="#C1953E"/>
</linearGradient>
<linearGradient id="paint10_linear_228_1212" x1="12.4675" y1="-12.6195" x2="94.4709" y2="20.2989" gradientUnits="userSpaceOnUse">
<stop stop-color="#BDA976"/>
<stop offset="0.44" stop-color="#EDECBB"/>
<stop offset="1" stop-color="#C1953E"/>
</linearGradient>
<linearGradient id="paint11_linear_228_1212" x1="-0.340235" y1="-2.68105" x2="88.0757" y2="40.3797" gradientUnits="userSpaceOnUse">
<stop stop-color="#BDA976"/>
<stop offset="0.44" stop-color="#EDECBB"/>
<stop offset="1" stop-color="#C1953E"/>
</linearGradient>
<linearGradient id="paint12_linear_228_1212" x1="-27.9141" y1="54.2116" x2="60.9029" y2="96.7586" gradientUnits="userSpaceOnUse">
<stop stop-color="#BDA976"/>
<stop offset="0.44" stop-color="#EDECBB"/>
<stop offset="1" stop-color="#C1953E"/>
</linearGradient>
<linearGradient id="paint13_linear_228_1212" x1="-21.931" y1="43.4585" x2="66.0063" y2="84.2354" gradientUnits="userSpaceOnUse">
<stop stop-color="#BDA976"/>
<stop offset="0.44" stop-color="#EDECBB"/>
<stop offset="1" stop-color="#C1953E"/>
</linearGradient>
<linearGradient id="paint14_linear_228_1212" x1="-25.758" y1="44.7808" x2="65.57" y2="90.1785" gradientUnits="userSpaceOnUse">
<stop stop-color="#BDA976"/>
<stop offset="0.44" stop-color="#EDECBB"/>
<stop offset="1" stop-color="#C1953E"/>
</linearGradient>
<linearGradient id="paint15_linear_228_1212" x1="-19.3703" y1="36.7967" x2="69.2034" y2="79.5485" gradientUnits="userSpaceOnUse">
<stop stop-color="#BDA976"/>
<stop offset="0.44" stop-color="#EDECBB"/>
<stop offset="1" stop-color="#C1953E"/>
</linearGradient>
<linearGradient id="paint16_linear_228_1212" x1="-22.8653" y1="41.2083" x2="67.4489" y2="85.2562" gradientUnits="userSpaceOnUse">
<stop stop-color="#BDA976"/>
<stop offset="0.44" stop-color="#EDECBB"/>
<stop offset="1" stop-color="#C1953E"/>
</linearGradient>
<linearGradient id="paint17_linear_228_1212" x1="-8.43563" y1="12.6356" x2="82.6812" y2="56.9156" gradientUnits="userSpaceOnUse">
<stop stop-color="#BDA976"/>
<stop offset="0.44" stop-color="#EDECBB"/>
<stop offset="1" stop-color="#C1953E"/>
</linearGradient>
<linearGradient id="paint18_linear_228_1212" x1="-11.4968" y1="17.7421" x2="78.5435" y2="63.9032" gradientUnits="userSpaceOnUse">
<stop stop-color="#BDA976"/>
<stop offset="0.44" stop-color="#EDECBB"/>
<stop offset="1" stop-color="#C1953E"/>
</linearGradient>
<linearGradient id="paint19_linear_228_1212" x1="-12.5869" y1="23.5368" x2="75.1486" y2="63.9689" gradientUnits="userSpaceOnUse">
<stop stop-color="#BDA976"/>
<stop offset="0.44" stop-color="#EDECBB"/>
<stop offset="1" stop-color="#C1953E"/>
</linearGradient>
<linearGradient id="paint20_linear_228_1212" x1="-16.3528" y1="31.3264" x2="71.3449" y2="73.1158" gradientUnits="userSpaceOnUse">
<stop stop-color="#BDA976"/>
<stop offset="0.44" stop-color="#EDECBB"/>
<stop offset="1" stop-color="#C1953E"/>
</linearGradient>
<linearGradient id="paint21_linear_228_1212" x1="-5.47068" y1="12.5796" x2="76.5327" y2="45.4981" gradientUnits="userSpaceOnUse">
<stop stop-color="#BDA976"/>
<stop offset="0.44" stop-color="#EDECBB"/>
<stop offset="1" stop-color="#C1953E"/>
</linearGradient>
<linearGradient id="paint22_linear_228_1212" x1="-16.0115" y1="29.3396" x2="72.2719" y2="72.2308" gradientUnits="userSpaceOnUse">
<stop stop-color="#BDA976"/>
<stop offset="0.44" stop-color="#EDECBB"/>
<stop offset="1" stop-color="#C1953E"/>
</linearGradient>
<linearGradient id="paint23_linear_228_1212" x1="45.2799" y1="1.97833" x2="45.2799" y2="72.0246" gradientUnits="userSpaceOnUse">
<stop stop-color="#CCC2A5"/>
<stop offset="0.22" stop-color="#E6DAC2"/>
<stop offset="0.39" stop-color="#EAE7D1"/>
<stop offset="0.42" stop-color="#A9A28E"/>
<stop offset="0.44" stop-color="#756A58"/>
<stop offset="0.45" stop-color="#4F4232"/>
<stop offset="0.47" stop-color="#382A1B"/>
<stop offset="0.48" stop-color="#302112"/>
<stop offset="0.62" stop-color="#543517"/>
<stop offset="0.86" stop-color="#A98955"/>
<stop offset="1" stop-color="#CAA74B"/>
</linearGradient>
<linearGradient id="paint24_linear_228_1212" x1="36.5649" y1="28.0869" x2="51.5173" y2="48.9995" gradientUnits="userSpaceOnUse">
<stop stop-color="#BDA976"/>
<stop offset="0.44" stop-color="#EDECBB"/>
<stop offset="1" stop-color="#C1953E"/>
</linearGradient>
<linearGradient id="paint25_linear_228_1212" x1="38.2895" y1="26.8744" x2="53.3207" y2="47.8897" gradientUnits="userSpaceOnUse">
<stop stop-color="#BDA976"/>
<stop offset="0.44" stop-color="#EDECBB"/>
<stop offset="1" stop-color="#C1953E"/>
</linearGradient>
<clipPath id="clip0_228_1212">
<rect width="91" height="86" fill="white"/>
</clipPath>
<clipPath id="clip1_228_1212">
<rect width="91" height="86" fill="white"/>
</clipPath>
</defs>
</svg>
