<svg width="209" height="68" viewBox="0 0 209 68" fill="none" xmlns="http://www.w3.org/2000/svg">
<path d="M156.34 44.2801L159.14 44.2201C159.247 44.2201 159.3 44.3334 159.3 44.5601C159.3 44.7868 159.247 44.9001 159.14 44.9001H158.52C158.187 44.9001 157.967 44.9668 157.86 45.1001C157.754 45.2201 157.7 45.6068 157.7 46.2601C157.7 46.9001 157.714 47.5601 157.74 48.2401C157.78 48.9068 157.814 49.3734 157.84 49.6401C157.88 49.8934 157.914 50.1134 157.94 50.3001C157.98 50.4868 158 50.6201 158 50.7001C158 50.8601 157.894 50.9401 157.68 50.9401C157.6 50.9401 157.467 50.6934 157.28 50.2001C157.107 49.7068 156.927 49.4601 156.74 49.4601C155.514 49.9934 154.227 50.2601 152.88 50.2601C150.574 50.2601 148.667 49.6868 147.16 48.5401C145.654 47.3934 144.9 45.8001 144.9 43.7601C144.9 42.2134 145.294 40.8668 146.08 39.7201C146.88 38.5734 147.894 37.7268 149.12 37.1801C150.347 36.6201 151.68 36.3401 153.12 36.3401C153.747 36.3401 154.28 36.4001 154.72 36.5201C155.16 36.6268 155.707 36.8068 156.36 37.0601V36.6401C156.36 36.5201 156.454 36.4601 156.64 36.4601C156.84 36.4601 156.94 36.5201 156.94 36.6401C156.94 37.8534 157 38.8601 157.12 39.6601C157.134 39.7134 157.1 39.7601 157.02 39.8001C156.954 39.8401 156.847 39.8601 156.7 39.8601C156.567 39.8601 156.494 39.8001 156.48 39.6801L156.34 38.8001C155.18 37.7468 153.96 37.2201 152.68 37.2201C151.174 37.2201 149.914 37.7601 148.9 38.8401C147.887 39.9068 147.38 41.4001 147.38 43.3201C147.38 45.2268 147.914 46.7134 148.98 47.7801C150.047 48.8334 151.387 49.3601 153 49.3601C154.054 49.3601 154.854 49.0801 155.4 48.5201V46.6801C155.4 45.5068 155.26 44.9201 154.98 44.9201H152.86C152.754 44.9201 152.7 44.8134 152.7 44.6001C152.7 44.3734 152.754 44.2601 152.86 44.2601L156.34 44.2801Z" fill="url(#paint0_linear_231_1310)"/>
<path d="M160.292 40.3401L161.872 40.3801C162.019 40.3801 162.146 40.3801 162.252 40.3801L164.332 40.3401C164.426 40.3401 164.472 40.4401 164.472 40.6401C164.472 40.8268 164.419 40.9201 164.312 40.9201H163.392C163.219 40.9201 163.132 41.0268 163.132 41.2401V47.8601C163.132 48.8601 163.266 49.3601 163.532 49.3601H164.052C165.519 49.3334 166.532 49.1268 167.092 48.7401L167.192 47.9601C167.219 47.8801 167.286 47.8401 167.392 47.8401C167.512 47.8401 167.592 47.8401 167.632 47.8401C167.712 47.8668 167.752 47.9068 167.752 47.9601C167.672 48.5201 167.632 49.3068 167.632 50.3201C167.632 50.3868 167.539 50.4201 167.352 50.4201C167.179 50.4201 167.092 50.3868 167.092 50.3201V50.0001H163.652L160.252 50.0401C160.159 50.0401 160.112 49.9401 160.112 49.7401C160.112 49.5401 160.152 49.4401 160.232 49.4401H161.132C161.279 49.4401 161.366 49.4134 161.392 49.3601C161.419 49.2934 161.432 49.1268 161.432 48.8601V42.5601C161.432 41.4934 161.299 40.9601 161.032 40.9601H160.312C160.152 40.9601 160.072 40.8601 160.072 40.6601C160.072 40.4468 160.146 40.3401 160.292 40.3401Z" fill="url(#paint1_linear_231_1310)"/>
<path d="M170.461 41.6201C171.541 40.6201 172.795 40.1201 174.221 40.1201C175.648 40.1201 176.895 40.6201 177.961 41.6201C179.041 42.6201 179.581 43.8068 179.581 45.1801C179.581 46.5401 179.041 47.7268 177.961 48.7401C176.895 49.7534 175.648 50.2601 174.221 50.2601C172.795 50.2601 171.541 49.7534 170.461 48.7401C169.395 47.7268 168.861 46.5401 168.861 45.1801C168.861 43.8068 169.395 42.6201 170.461 41.6201ZM176.641 42.1001C176.015 41.2601 175.208 40.8401 174.221 40.8401C173.235 40.8401 172.428 41.2601 171.801 42.1001C171.175 42.9268 170.861 43.9534 170.861 45.1801C170.861 46.3934 171.175 47.4268 171.801 48.2801C172.428 49.1201 173.235 49.5401 174.221 49.5401C175.208 49.5401 176.015 49.1201 176.641 48.2801C177.268 47.4268 177.581 46.3934 177.581 45.1801C177.581 43.9534 177.268 42.9268 176.641 42.1001Z" fill="url(#paint2_linear_231_1310)"/>
<path d="M183.428 50.0001L181.288 50.0401C181.194 50.0401 181.148 49.9401 181.148 49.7401C181.148 49.5401 181.181 49.4401 181.248 49.4401H182.228C182.388 49.4401 182.468 49.3268 182.468 49.1001V42.5401C182.468 41.4868 182.321 40.9601 182.028 40.9601H181.328C181.181 40.9601 181.108 40.8601 181.108 40.6601C181.108 40.4468 181.168 40.3401 181.288 40.3401C182.474 40.3668 183.681 40.3801 184.908 40.3801C186.134 40.3801 187.081 40.6201 187.748 41.1001C188.428 41.5801 188.768 42.1601 188.768 42.8401C188.768 43.3334 188.541 43.7801 188.088 44.1801C187.648 44.5801 187.121 44.8401 186.508 44.9601V45.0001C187.388 45.1601 188.108 45.4734 188.668 45.9401C189.241 46.3934 189.528 46.9401 189.528 47.5801C189.528 48.2068 189.128 48.7668 188.328 49.2601C187.528 49.7534 186.488 50.0001 185.208 50.0001H183.428ZM187.388 47.4801C187.388 46.1734 186.314 45.4601 184.168 45.3401V48.0601C184.168 48.9268 184.301 49.3601 184.568 49.3601H185.108C185.841 49.3601 186.401 49.1868 186.788 48.8401C187.188 48.4934 187.388 48.0401 187.388 47.4801ZM184.568 40.9801C184.301 40.9801 184.168 41.2001 184.168 41.6401V44.6201C184.314 44.6468 184.534 44.6601 184.828 44.6601C185.481 44.6601 185.988 44.4934 186.348 44.1601C186.708 43.8268 186.888 43.4134 186.888 42.9201C186.888 42.4134 186.701 41.9668 186.328 41.5801C185.954 41.1801 185.368 40.9801 184.568 40.9801Z" fill="url(#paint3_linear_231_1310)"/>
<path d="M191.719 50.0001L190.139 50.0401C190.045 50.0401 189.999 49.9534 189.999 49.7801C189.999 49.6068 190.045 49.5201 190.139 49.5201H190.779C190.925 49.5201 191.032 49.4601 191.099 49.3401C191.405 48.8334 192.019 47.4868 192.939 45.3001C193.859 43.1001 194.519 41.4334 194.919 40.3001C194.972 40.1801 195.099 40.1201 195.299 40.1201C195.512 40.1201 195.645 40.1868 195.699 40.3201C195.859 40.9868 196.325 42.2468 197.099 44.1001C197.885 45.9534 198.572 47.5001 199.159 48.7401C199.319 49.0601 199.465 49.2668 199.599 49.3601C199.732 49.4534 199.939 49.5001 200.219 49.5001C200.299 49.5001 200.339 49.5934 200.339 49.7801C200.339 49.9534 200.305 50.0401 200.239 50.0401L198.319 50.0001L196.159 50.0401C196.079 50.0401 196.039 49.9534 196.039 49.7801C196.039 49.6068 196.079 49.5201 196.159 49.5201H197.119C197.265 49.5201 197.339 49.4601 197.339 49.3401C197.339 49.3268 196.965 48.3001 196.219 46.2601H193.439C192.785 47.8734 192.459 48.8201 192.459 49.1001C192.459 49.3668 192.539 49.5001 192.699 49.5001H193.519C193.625 49.5001 193.679 49.5934 193.679 49.7801C193.679 49.9534 193.639 50.0401 193.559 50.0401L191.719 50.0001ZM195.959 45.5801C195.919 45.4601 195.572 44.4468 194.919 42.5401H194.859C194.539 43.4601 194.159 44.4734 193.719 45.5801H195.959Z" fill="url(#paint4_linear_231_1310)"/>
<path d="M201.328 40.3401L202.908 40.3801C203.054 40.3801 203.181 40.3801 203.288 40.3801L205.368 40.3401C205.461 40.3401 205.508 40.4401 205.508 40.6401C205.508 40.8268 205.454 40.9201 205.348 40.9201H204.428C204.254 40.9201 204.168 41.0268 204.168 41.2401V47.8601C204.168 48.8601 204.301 49.3601 204.568 49.3601H205.088C206.554 49.3334 207.568 49.1268 208.128 48.7401L208.228 47.9601C208.254 47.8801 208.321 47.8401 208.428 47.8401C208.548 47.8401 208.628 47.8401 208.668 47.8401C208.748 47.8668 208.788 47.9068 208.788 47.9601C208.708 48.5201 208.668 49.3068 208.668 50.3201C208.668 50.3868 208.574 50.4201 208.388 50.4201C208.214 50.4201 208.128 50.3868 208.128 50.3201V50.0001H204.688L201.288 50.0401C201.194 50.0401 201.148 49.9401 201.148 49.7401C201.148 49.5401 201.188 49.4401 201.268 49.4401H202.168C202.314 49.4401 202.401 49.4134 202.428 49.3601C202.454 49.2934 202.468 49.1268 202.468 48.8601V42.5601C202.468 41.4934 202.334 40.9601 202.068 40.9601H201.348C201.188 40.9601 201.108 40.8601 201.108 40.6601C201.108 40.4468 201.181 40.3401 201.328 40.3401Z" fill="url(#paint5_linear_231_1310)"/>
<path d="M0.26 15.54L2.78 15.58H5.08C6.84 15.58 8.16 15.9134 9.04 16.58C9.93333 17.2467 10.38 18.04 10.38 18.96C10.38 19.88 10.0533 20.6334 9.4 21.22C8.74667 21.7934 7.91333 22.1934 6.9 22.42C5.80667 22.54 5.13333 22.6 4.88 22.6C4.64 22.6 4.31333 22.56 3.9 22.48V26.58C3.9 27.7534 4.04 28.34 4.32 28.34H5.48C5.58667 28.34 5.64 28.4534 5.64 28.68C5.64 28.8934 5.58667 29 5.48 29L2.96 28.98L0.16 29.04C0.0533333 29.04 0 28.9267 0 28.7C0 28.4734 0.0533333 28.36 0.16 28.36H1.02C1.35333 28.36 1.57333 28.3 1.68 28.18C1.78667 28.0467 1.84 27.8 1.84 27.44V17.96C1.84 16.7867 1.7 16.2 1.42 16.2H0.26C0.153333 16.2 0.0999999 16.0934 0.0999999 15.88C0.0999999 15.6534 0.153333 15.54 0.26 15.54ZM4.96 21.86C5.98667 21.86 6.78667 21.6067 7.36 21.1C7.93333 20.5934 8.22 19.9667 8.22 19.22C8.22 18.4734 7.91333 17.8134 7.3 17.24C6.68667 16.6667 5.81333 16.38 4.68 16.38C4.16 16.38 3.9 16.6534 3.9 17.2V21.74C4.26 21.82 4.61333 21.86 4.96 21.86ZM12.3 27.6C12.38 27.5334 12.46 27.54 12.54 27.62C12.62 27.6867 12.66 27.74 12.66 27.78C12.66 27.8067 12.6533 27.8334 12.64 27.86C11.9867 28.7934 11.26 29.26 10.46 29.26C9.9 29.26 9.38667 29.0667 8.92 28.68C8.45333 28.2934 8.05333 27.8067 7.72 27.22C7.4 26.6334 7.08667 26.0334 6.78 25.42C6.02 23.86 5.29333 22.9134 4.6 22.58L5.88 22.34C6.49333 22.4467 7.02667 22.72 7.48 23.16C7.94667 23.6 8.32 24.0934 8.6 24.64C8.88 25.1734 9.14667 25.7067 9.4 26.24C10 27.4934 10.6533 28.12 11.36 28.12C11.6133 28.12 11.9267 27.9467 12.3 27.6Z" fill="url(#paint6_linear_231_1310)"/>
<path d="M14.0939 20.62C15.1739 19.62 16.4272 19.12 17.8539 19.12C19.2806 19.12 20.5272 19.62 21.5939 20.62C22.6739 21.62 23.2139 22.8067 23.2139 24.18C23.2139 25.54 22.6739 26.7267 21.5939 27.74C20.5272 28.7534 19.2806 29.26 17.8539 29.26C16.4272 29.26 15.1739 28.7534 14.0939 27.74C13.0272 26.7267 12.4939 25.54 12.4939 24.18C12.4939 22.8067 13.0272 21.62 14.0939 20.62ZM20.2739 21.1C19.6472 20.26 18.8406 19.84 17.8539 19.84C16.8672 19.84 16.0606 20.26 15.4339 21.1C14.8072 21.9267 14.4939 22.9534 14.4939 24.18C14.4939 25.3934 14.8072 26.4267 15.4339 27.28C16.0606 28.12 16.8672 28.54 17.8539 28.54C18.8406 28.54 19.6472 28.12 20.2739 27.28C20.9006 26.4267 21.2139 25.3934 21.2139 24.18C21.2139 22.9534 20.9006 21.9267 20.2739 21.1Z" fill="url(#paint7_linear_231_1310)"/>
<path d="M29.34 28.98L27.34 29.04C27.2467 29.04 27.2 28.94 27.2 28.74C27.2 28.54 27.24 28.44 27.32 28.44H28.22C28.3667 28.44 28.4533 28.4134 28.48 28.36C28.5067 28.2934 28.52 28.1267 28.52 27.86V24.68H28.5C28.5133 24.28 27.5733 22.9934 25.68 20.82C25.16 20.2067 24.76 19.9 24.48 19.9H24.02C23.9133 19.9 23.86 19.8134 23.86 19.64C23.86 19.4534 23.9 19.36 23.98 19.36L25.88 19.38L27.96 19.36C28.04 19.36 28.08 19.4467 28.08 19.62C28.08 19.7934 28.0467 19.88 27.98 19.88H26.98C26.98 19.9067 27.1467 20.12 27.48 20.52C28.5867 21.84 29.3067 22.84 29.64 23.52H29.7C29.9 23.1867 30.3067 22.6334 30.92 21.86C31.5333 21.0867 31.88 20.62 31.96 20.46C32.0533 20.2867 32.1 20.1534 32.1 20.06C32.1 19.9534 32.0467 19.9 31.94 19.9H31.38C31.3133 19.9 31.28 19.8134 31.28 19.64C31.28 19.4534 31.3267 19.36 31.42 19.36L33.28 19.38L34.86 19.36C34.9533 19.36 35 19.4467 35 19.62C35 19.7934 34.9467 19.88 34.84 19.88H34.48C34.24 19.88 34.0333 19.9534 33.86 20.1C33.2067 20.6467 32.46 21.3934 31.62 22.34C30.7933 23.2734 30.3267 23.9267 30.22 24.3V26.86C30.22 27.8734 30.3533 28.38 30.62 28.38H31.62C31.7267 28.38 31.78 28.4867 31.78 28.7C31.78 28.9 31.74 29 31.66 29L29.34 28.98Z" fill="url(#paint8_linear_231_1310)"/>
<path d="M35.7417 29L34.1617 29.04C34.0684 29.04 34.0217 28.9534 34.0217 28.78C34.0217 28.6067 34.0684 28.52 34.1617 28.52H34.8017C34.9484 28.52 35.0551 28.46 35.1217 28.34C35.4284 27.8334 36.0417 26.4867 36.9617 24.3C37.8817 22.1 38.5417 20.4334 38.9417 19.3C38.9951 19.18 39.1217 19.12 39.3217 19.12C39.5351 19.12 39.6684 19.1867 39.7217 19.32C39.8817 19.9867 40.3484 21.2467 41.1217 23.1C41.9084 24.9534 42.5951 26.5 43.1817 27.74C43.3417 28.06 43.4884 28.2667 43.6217 28.36C43.7551 28.4534 43.9617 28.5 44.2417 28.5C44.3217 28.5 44.3617 28.5934 44.3617 28.78C44.3617 28.9534 44.3284 29.04 44.2617 29.04L42.3417 29L40.1817 29.04C40.1017 29.04 40.0617 28.9534 40.0617 28.78C40.0617 28.6067 40.1017 28.52 40.1817 28.52H41.1417C41.2884 28.52 41.3617 28.46 41.3617 28.34C41.3617 28.3267 40.9884 27.3 40.2417 25.26H37.4617C36.8084 26.8734 36.4817 27.82 36.4817 28.1C36.4817 28.3667 36.5617 28.5 36.7217 28.5H37.5417C37.6484 28.5 37.7017 28.5934 37.7017 28.78C37.7017 28.9534 37.6617 29.04 37.5817 29.04L35.7417 29ZM39.9817 24.58C39.9417 24.46 39.5951 23.4467 38.9417 21.54H38.8817C38.5617 22.46 38.1817 23.4734 37.7417 24.58H39.9817Z" fill="url(#paint9_linear_231_1310)"/>
<path d="M45.3506 19.34L46.9306 19.38C47.0773 19.38 47.204 19.38 47.3106 19.38L49.3906 19.34C49.484 19.34 49.5306 19.44 49.5306 19.64C49.5306 19.8267 49.4773 19.92 49.3706 19.92H48.4506C48.2773 19.92 48.1906 20.0267 48.1906 20.24V26.86C48.1906 27.86 48.324 28.36 48.5906 28.36H49.1106C50.5773 28.3334 51.5906 28.1267 52.1506 27.74L52.2506 26.96C52.2773 26.88 52.344 26.84 52.4506 26.84C52.5706 26.84 52.6506 26.84 52.6906 26.84C52.7706 26.8667 52.8106 26.9067 52.8106 26.96C52.7306 27.52 52.6906 28.3067 52.6906 29.32C52.6906 29.3867 52.5973 29.42 52.4106 29.42C52.2373 29.42 52.1506 29.3867 52.1506 29.32V29H48.7106L45.3106 29.04C45.2173 29.04 45.1706 28.94 45.1706 28.74C45.1706 28.54 45.2106 28.44 45.2906 28.44H46.1906C46.3373 28.44 46.424 28.4134 46.4506 28.36C46.4773 28.2934 46.4906 28.1267 46.4906 27.86V21.56C46.4906 20.4934 46.3573 19.96 46.0906 19.96H45.3706C45.2106 19.96 45.1306 19.86 45.1306 19.66C45.1306 19.4467 45.204 19.34 45.3506 19.34Z" fill="url(#paint10_linear_231_1310)"/>
<g clip-path="url(#clip0_231_1310)">
<g clip-path="url(#clip1_231_1310)">
<path d="M112.997 61.8021C111.566 62.5829 109.938 62.9321 108.312 62.8073C108.298 62.8053 108.283 62.8082 108.27 62.8156C108.257 62.823 108.247 62.8344 108.241 62.848C108.236 62.8617 108.235 62.8768 108.239 62.8911C108.243 62.9054 108.251 62.9179 108.263 62.9268C110.204 64.4021 112.578 65.1988 115.019 65.1938C116.914 65.2389 118.756 64.5643 120.172 63.3064C120.207 63.2709 120.227 63.2229 120.227 63.1728C120.227 63.1228 120.207 63.0748 120.172 63.0393C117.717 60.7477 115.494 60.4419 112.997 61.8021Z" fill="url(#paint11_linear_231_1310)"/>
<path d="M111.932 57.0433C111.928 57.0587 111.929 57.0751 111.934 57.0899C111.94 57.1048 111.951 57.1171 111.965 57.1249C111.978 57.1327 111.994 57.1356 112.009 57.133C112.025 57.1305 112.039 57.1226 112.049 57.1108C113.8 55.2649 114.915 52.8773 115.224 50.3143C115.261 50.0184 115.282 49.7208 115.29 49.4226C114.171 50.6104 112.994 51.7381 111.763 52.8013C112.151 54.1804 112.209 55.636 111.932 57.0433Z" fill="url(#paint12_linear_231_1310)"/>
<path d="M107.223 59.1494C107.219 59.1655 107.221 59.1825 107.228 59.1974C107.236 59.2123 107.249 59.2242 107.264 59.231C107.28 59.2377 107.298 59.2389 107.315 59.2343C107.331 59.2297 107.346 59.2196 107.355 59.2059C108.631 57.8074 109.538 56.1351 110 54.3298C109.058 55.036 108.113 55.7068 107.179 56.3353C107.355 57.2646 107.37 58.2154 107.223 59.1494Z" fill="url(#paint13_linear_231_1310)"/>
<path d="M132.521 41.6707C129.368 41.2267 127.475 42.1993 126.28 44.62C125.713 45.7604 124.884 46.7506 123.861 47.5095C124.672 45.8448 125.324 44.1069 125.807 42.3191C128.093 41.9895 130.209 40.923 131.833 39.2816C133.125 38.0274 133.893 36.3297 133.98 34.5316C133.98 34.5082 133.975 34.4851 133.965 34.4636C133.956 34.4422 133.942 34.4229 133.925 34.4068C133.908 34.3907 133.888 34.3782 133.866 34.37C133.844 34.3618 133.821 34.358 133.797 34.359C130.624 34.4893 128.931 35.7685 128.187 38.3831C127.777 39.8197 126.973 41.1133 125.867 42.1182C127.003 37.6462 127.273 32.9982 126.66 28.425C128.31 27.1939 129.518 25.4638 130.105 23.4918C130.606 21.9452 130.5 20.2662 129.809 18.7947C129.799 18.7755 129.785 18.7585 129.769 18.7448C129.752 18.7311 129.733 18.721 129.712 18.715C129.691 18.7091 129.669 18.7075 129.648 18.7103C129.626 18.713 129.606 18.7202 129.587 18.7313C127.119 20.183 126.308 21.9308 126.816 24.3199C127.082 25.5701 127.012 26.8684 126.615 28.0832C126.377 26.2913 125.987 24.523 125.447 22.7976C124.775 20.6846 123.843 18.6631 122.672 16.7791C123.314 15.3546 123.473 13.7603 123.127 12.237C122.901 11.1578 122.322 10.1846 121.481 9.47092C121.463 10.8628 121.445 12.4626 121.424 14.1821C121.979 14.8703 122.358 15.683 122.528 16.5501C121.945 15.6064 121.263 14.7276 120.493 13.9284L120.342 14.4499L120.846 15.2498C127.464 23.8653 127.457 38.1223 121.727 47.876C118.336 53.7086 112.952 58.1219 106.565 60.3041C106.381 60.0571 106.143 59.8559 105.868 59.7159C105.593 59.576 105.29 59.5011 104.982 59.4972C104.483 59.5205 104.007 59.7134 103.632 60.0441C103.258 60.3747 103.008 60.8233 102.923 61.3154C102.255 61.4257 101.579 61.4775 100.903 61.4705C100.758 60.7376 100.384 59.9694 99.4921 59.7086H95.4371C94.5556 59.9659 94.1783 60.734 94.0267 61.4705C93.3488 61.4776 92.6716 61.4257 92.0028 61.3154C91.9181 60.8233 91.6679 60.3747 91.2934 60.0441C90.9189 59.7134 90.4427 59.5205 89.9435 59.4972C89.6355 59.5019 89.3327 59.5771 89.0582 59.717C88.7838 59.8569 88.545 60.0577 88.3603 60.3041C81.9737 58.121 76.59 53.708 73.1983 47.876C67.472 38.1223 67.4614 23.8653 74.0798 15.2498L74.6052 14.4499L74.45 13.9284C73.6797 14.7252 72.9965 15.6016 72.412 16.543C72.5839 15.6765 72.9625 14.8642 73.5156 14.1751C73.4945 12.4555 73.4769 10.8557 73.4592 9.46387C72.6267 10.1799 72.0551 11.1514 71.8337 12.2265C71.4902 13.7501 71.651 15.3441 72.2921 16.7685C71.1192 18.6515 70.1858 20.6733 69.5136 22.7871C68.9774 24.513 68.5881 26.2812 68.35 28.0726C67.9506 26.8582 67.88 25.5598 68.1455 24.3093C68.6532 21.9202 67.8563 20.1725 65.374 18.7207C65.3557 18.7097 65.3353 18.7026 65.3141 18.6998C65.2929 18.6971 65.2713 18.6987 65.2508 18.7047C65.2303 18.7106 65.2112 18.7208 65.1948 18.7344C65.1784 18.7481 65.1649 18.765 65.1554 18.7841C64.4623 20.255 64.3552 21.9343 64.8556 23.4812C65.4438 25.4537 66.6532 27.1839 68.3041 28.4145C67.6916 32.9851 67.9597 37.6306 69.094 42.1006C67.9852 41.0971 67.1802 39.8031 66.7703 38.3654C66.0298 35.7685 64.3408 34.4893 61.1603 34.3414C61.1369 34.3399 61.1135 34.3433 61.0915 34.3513C61.0695 34.3594 61.0494 34.372 61.0325 34.3882C61.0156 34.4044 61.0022 34.424 60.9933 34.4456C60.9843 34.4673 60.98 34.4906 60.9805 34.514C61.06 36.3184 61.827 38.0241 63.1244 39.2816C64.7464 40.9282 66.8625 41.9998 69.1504 42.3332C69.6329 44.1216 70.2859 45.8597 71.1003 47.5236C70.0772 46.7647 69.2483 45.7745 68.6814 44.6341C67.4826 42.2133 65.5891 41.2408 62.4368 41.6848C62.4135 41.6882 62.3911 41.6963 62.371 41.7084C62.3509 41.7206 62.3334 41.7367 62.3196 41.7558C62.3058 41.7748 62.296 41.7964 62.2906 41.8193C62.2853 41.8423 62.2847 41.866 62.2887 41.8892C62.6985 43.6412 63.76 45.1718 65.2576 46.1705C67.0542 47.425 69.1942 48.0956 71.3859 48.0909C72.3205 49.8971 73.4561 51.5921 74.7709 53.1439C74.8767 53.2673 74.9825 53.38 75.0847 53.4963C73.6272 52.9871 72.3494 52.0652 71.4071 50.8429C69.7569 48.704 67.7082 48.1262 64.7076 49.1797C64.6631 49.1971 64.6274 49.2313 64.6083 49.2749C64.5891 49.3185 64.588 49.3679 64.6053 49.4123C65.3512 51.0477 66.691 52.3388 68.3535 53.0241C70.473 53.9567 72.8402 54.1684 75.0918 53.6267C75.1064 53.6227 75.1192 53.614 75.1281 53.6018C75.1371 53.5896 75.1417 53.5748 75.1412 53.5597C76.809 55.4641 78.7036 57.1575 80.7828 58.6022C79.2122 58.3048 77.7506 57.5904 76.5516 56.5338C74.309 54.557 71.9677 54.3526 68.9177 56.125C68.8953 56.1384 68.8759 56.1561 68.8606 56.177C68.8452 56.198 68.8343 56.2219 68.8284 56.2472C68.8224 56.2725 68.8217 56.2988 68.8261 56.3244C68.8306 56.35 68.8401 56.3745 68.8542 56.3963C70.0056 58.0208 71.7329 59.1459 73.6849 59.543C76.1668 60.1108 78.7664 59.8548 81.0896 58.8136C83.1934 60.2341 85.4635 61.3914 87.8491 62.2598C88.0007 63.4262 88.8822 64.3177 89.9647 64.3177C90.3026 64.3112 90.6337 64.2212 90.9284 64.0558C91.2231 63.8904 91.4722 63.6548 91.6537 63.3698C92.6041 63.5865 93.5676 63.7419 94.538 63.8349C95.5041 65.3008 97.4893 68 97.4893 68C97.4893 68 99.478 65.3008 100.441 63.8349C101.412 63.742 102.377 63.5866 103.328 63.3698C103.509 63.6545 103.758 63.89 104.052 64.0554C104.346 64.2208 104.677 64.3109 105.014 64.3177C106.072 64.3177 106.964 63.4262 107.13 62.2598C109.515 61.3914 111.785 60.2341 113.889 58.8136C116.212 59.8545 118.812 60.1106 121.294 59.543C123.246 59.1444 124.974 58.0197 126.128 56.3963C126.142 56.3743 126.151 56.3496 126.155 56.3239C126.16 56.2981 126.159 56.2718 126.152 56.2464C126.146 56.2211 126.135 56.1973 126.119 56.1764C126.103 56.1555 126.084 56.1381 126.061 56.125C123.018 54.3631 120.67 54.557 118.431 56.5338C117.232 57.5904 115.77 58.3048 114.199 58.6022C116.279 57.1575 118.173 55.4641 119.841 53.5597C119.84 53.5745 119.843 53.5893 119.852 53.6015C119.86 53.6137 119.873 53.6226 119.887 53.6267C122.132 54.1636 124.491 53.952 126.604 53.0241C128.272 52.3409 129.618 51.0481 130.366 49.4088C130.375 49.3866 130.38 49.3629 130.379 49.339C130.379 49.3151 130.373 49.2916 130.363 49.2698C130.353 49.2481 130.339 49.2285 130.322 49.2125C130.304 49.1964 130.283 49.184 130.26 49.1762C127.26 48.1191 125.211 48.7005 123.561 50.8394C122.619 52.0624 121.341 52.9845 119.883 53.4928C119.989 53.373 120.095 53.2602 120.197 53.1404C121.509 51.5893 122.642 49.8954 123.575 48.0909C125.767 48.0929 127.907 47.4199 129.703 46.1634C131.2 45.1649 132.261 43.634 132.669 41.8821C132.674 41.8584 132.675 41.8338 132.67 41.8098C132.666 41.7859 132.656 41.7632 132.642 41.7432C132.628 41.7232 132.61 41.7064 132.589 41.6939C132.568 41.6814 132.545 41.6735 132.521 41.6707Z" fill="url(#paint14_linear_231_1310)"/>
<path d="M120.864 39.5526C120.697 40.9992 120.241 42.3982 119.521 43.6675C120.349 44.8288 120.843 46.1907 120.952 47.6083C120.952 47.6223 120.957 47.6358 120.966 47.6467C120.974 47.6576 120.987 47.6653 121 47.6685C121.014 47.6717 121.029 47.6702 121.041 47.6644C121.054 47.6585 121.065 47.6486 121.071 47.6362C122.17 45.6235 122.573 43.3087 122.217 41.0473C122.049 39.8981 121.609 38.8045 120.934 37.8557C120.909 38.7059 120.888 39.2947 120.864 39.5526Z" fill="url(#paint15_linear_231_1310)"/>
<path d="M116.809 52.8513C116.806 52.8659 116.809 52.8812 116.816 52.8944C116.823 52.9076 116.835 52.9179 116.849 52.9234C116.864 52.9289 116.879 52.9293 116.894 52.9245C116.908 52.9197 116.921 52.9101 116.929 52.8973C118.376 51.0541 119.163 48.7967 119.169 46.4729C119.174 45.9335 119.122 45.3949 119.013 44.866C118.121 46.215 117.112 47.4858 115.995 48.6639C116.65 49.9616 116.931 51.4091 116.809 52.8513Z" fill="url(#paint16_linear_231_1310)"/>
<path d="M125.72 21.6789C125.719 21.6901 125.722 21.7012 125.729 21.7104C125.735 21.7196 125.745 21.7264 125.755 21.7297C125.766 21.733 125.778 21.7326 125.789 21.7285C125.799 21.7245 125.808 21.7171 125.814 21.7075C126.844 20.2411 127.356 18.4841 127.271 16.7053C127.237 15.3211 126.67 14.001 125.683 13.0108C125.671 12.9976 125.655 12.9871 125.638 12.9799C125.621 12.9727 125.603 12.969 125.585 12.969C125.566 12.969 125.548 12.9727 125.531 12.9799C125.514 12.9871 125.499 12.9976 125.486 13.0108C123.866 14.8723 123.713 16.5016 124.813 18.2774C125.447 19.3 125.762 20.4825 125.72 21.6789Z" fill="url(#paint17_linear_231_1310)"/>
<path d="M121.285 24.2549L121.366 24.2721C122.632 24.5082 123.798 25.0814 124.721 25.9219C124.728 25.9301 124.739 25.9356 124.75 25.9375C124.762 25.9394 124.774 25.9376 124.784 25.9324C124.794 25.9272 124.803 25.9189 124.807 25.9089C124.812 25.8989 124.812 25.8877 124.809 25.8772C124.377 24.1268 123.338 22.557 121.854 21.4091C121.681 21.2744 121.501 21.1482 121.314 21.031C121.318 22.0965 121.303 23.1826 121.285 24.2549Z" fill="url(#paint18_linear_231_1310)"/>
<path d="M121.285 29.1889C121.655 29.6309 122.098 30.0012 122.593 30.2825C123.635 30.8988 124.481 31.8155 125.028 32.9207C125.033 32.9305 125.041 32.9383 125.051 32.9432C125.06 32.948 125.071 32.9495 125.082 32.9476C125.093 32.9456 125.102 32.9402 125.11 32.9322C125.117 32.9242 125.122 32.914 125.124 32.9029C125.301 31.0549 124.887 29.1977 123.946 27.616C123.336 26.5609 122.422 25.7292 121.333 25.2371C121.316 26.5757 121.302 27.9036 121.285 29.1889Z" fill="url(#paint19_linear_231_1310)"/>
<path d="M122.445 32.3279C121.352 34.3519 121.317 35.9141 122.657 37.334C123.426 38.1455 123.942 39.1637 124.142 40.264C124.142 40.276 124.147 40.2875 124.155 40.296C124.164 40.3044 124.175 40.3092 124.187 40.3092C124.199 40.3092 124.211 40.3044 124.219 40.296C124.228 40.2875 124.232 40.276 124.232 40.264C124.87 38.7174 124.985 37.0043 124.559 35.3864C124.045 33.4423 123.226 32.9563 122.619 32.262C122.574 32.2238 122.47 32.2654 122.445 32.3279Z" fill="url(#paint20_linear_231_1310)"/>
<path d="M122.343 20.2785C122.088 19.5295 121.731 18.8361 121.285 18.2268C121.285 18.7132 121.285 19.1996 121.285 19.6897C121.645 19.8492 121.986 20.0644 122.299 20.3297C122.305 20.3303 122.311 20.3294 122.316 20.327C122.322 20.3246 122.327 20.3208 122.331 20.316C122.335 20.3111 122.338 20.3052 122.34 20.2988C122.342 20.2923 122.343 20.2854 122.343 20.2785Z" fill="url(#paint21_linear_231_1310)"/>
<path d="M128.692 31.209C128.264 33.1034 128.201 34.5959 127.985 35.3128C127.985 35.3682 128.003 35.4202 128.056 35.3959C129.945 34.5401 131.494 33.0994 132.465 31.2956C133.253 29.9122 133.477 28.2872 133.09 26.7486C133.084 26.7285 133.073 26.71 133.06 26.694C133.046 26.6781 133.029 26.665 133.01 26.6556C132.99 26.6462 132.97 26.6407 132.948 26.6395C132.927 26.6382 132.905 26.6411 132.885 26.6481C130.193 27.5624 129.218 28.8853 128.692 31.209Z" fill="url(#paint22_linear_231_1310)"/>
<path d="M86.6628 62.8077C85.0346 62.9328 83.405 62.5835 81.9723 61.8025C79.4684 60.4423 77.2431 60.7481 74.7921 63.0327C74.7737 63.0498 74.7591 63.0705 74.7491 63.0934C74.7391 63.1164 74.7339 63.1412 74.7339 63.1662C74.7339 63.1913 74.7391 63.2161 74.7491 63.239C74.7591 63.262 74.7737 63.2827 74.7921 63.2998C76.2035 64.5573 78.0411 65.2344 79.9339 65.1942C82.3774 65.2 84.7546 64.4033 86.698 62.9272C86.7088 62.919 86.7167 62.9078 86.7209 62.895C86.7251 62.8821 86.7253 62.8684 86.7215 62.8554C86.7177 62.8425 86.71 62.831 86.6996 62.8225C86.6891 62.814 86.6763 62.8089 86.6628 62.8077Z" fill="url(#paint23_linear_231_1310)"/>
<path d="M82.9185 57.1108C82.9289 57.1226 82.943 57.1305 82.9584 57.133C82.9738 57.1356 82.9895 57.1327 83.0031 57.1249C83.0167 57.1171 83.0273 57.1048 83.0333 57.0899C83.0392 57.0751 83.0401 57.0587 83.0358 57.0433C82.756 55.6366 82.8117 54.181 83.198 52.8013C81.9671 51.7379 80.79 50.6102 79.6714 49.4226C79.6787 49.7208 79.7006 50.0184 79.737 50.3143C80.0464 52.8773 81.1641 55.2649 82.9185 57.1108Z" fill="url(#paint24_linear_231_1310)"/>
<path d="M87.7381 59.1627C87.5897 58.2248 87.6046 57.2697 87.7822 56.3365C86.8479 55.7076 85.9026 55.0364 84.9609 54.3298C85.4228 56.1361 86.3299 57.8094 87.6056 59.2087C87.6151 59.2208 87.6283 59.2297 87.6434 59.2341C87.6586 59.2384 87.6747 59.238 87.6896 59.2329C87.7044 59.2277 87.7171 59.2181 87.7259 59.2055C87.7346 59.1929 87.7389 59.1779 87.7381 59.1627Z" fill="url(#paint25_linear_231_1310)"/>
<path d="M74.0039 47.6212C74.113 46.2017 74.6091 44.838 75.4394 43.6752C74.721 42.4035 74.2666 41.0026 74.1027 39.5548C74.078 39.2966 74.0568 38.707 74.0321 37.8557C73.3544 38.8058 72.9133 39.9008 72.7447 41.0516C72.3875 43.316 72.7914 45.6338 73.8946 47.6491C73.9023 47.6577 73.9123 47.6641 73.9235 47.6674C73.9347 47.6708 73.9465 47.671 73.9578 47.6682C73.9691 47.6653 73.9794 47.6594 73.9875 47.6511C73.9957 47.6428 74.0013 47.6325 74.0039 47.6212Z" fill="url(#paint26_linear_231_1310)"/>
<path d="M78.1644 52.8365C78.0393 51.3973 78.3163 49.9519 78.9659 48.655C77.8497 47.4799 76.8398 46.2121 75.9476 44.866C75.8392 45.3942 75.7872 45.9319 75.7923 46.4707C75.8015 48.7924 76.5907 51.0467 78.038 52.8859C78.0447 52.9024 78.0578 52.9155 78.0744 52.9224C78.091 52.9294 78.1097 52.9296 78.1265 52.9231C78.1432 52.9165 78.1566 52.9037 78.1638 52.8874C78.1709 52.8712 78.1711 52.8529 78.1644 52.8365Z" fill="url(#paint27_linear_231_1310)"/>
<path d="M69.6 21.6632C69.5596 20.4725 69.8745 19.2961 70.5057 18.2788C71.5969 16.4918 71.4478 14.8728 69.8328 13.0108C69.8202 12.9976 69.805 12.9871 69.7881 12.9799C69.7712 12.9727 69.753 12.969 69.7346 12.969C69.7161 12.969 69.6979 12.9727 69.681 12.9799C69.6641 12.9871 69.6489 12.9976 69.6363 13.0108C68.6487 13.9945 68.079 15.3106 68.0431 16.6919C67.9566 18.4714 68.4678 20.2295 69.4981 21.6954C69.5025 21.7087 69.512 21.7197 69.5246 21.7261C69.5372 21.7324 69.5519 21.7336 69.5654 21.7294C69.5789 21.7251 69.5901 21.7157 69.5966 21.7033C69.6031 21.6909 69.6043 21.6765 69.6 21.6632Z" fill="url(#paint28_linear_231_1310)"/>
<path d="M70.261 25.5607C71.1782 24.7243 72.3366 24.1541 73.5952 23.9191L73.676 23.902C73.676 22.835 73.6429 21.7543 73.6319 20.6804C73.4463 20.797 73.2673 20.9226 73.0958 21.0566C71.6201 22.1989 70.588 23.7609 70.1581 25.5026C70.1499 25.5153 70.1473 25.5305 70.1511 25.5449C70.1549 25.5594 70.1647 25.5718 70.1783 25.5795C70.192 25.5872 70.2083 25.5896 70.2238 25.586C70.2393 25.5825 70.2527 25.5734 70.261 25.5607Z" fill="url(#paint29_linear_231_1310)"/>
<path d="M69.8355 32.9028C69.8371 32.9139 69.842 32.9242 69.8495 32.9322C69.857 32.9402 69.8668 32.9456 69.8774 32.9476C69.8881 32.9495 69.899 32.948 69.9087 32.9432C69.9185 32.9383 69.9265 32.9304 69.9317 32.9206C70.4768 31.8089 71.3233 30.8863 72.3673 30.2657C72.8607 29.9923 73.3038 29.6309 73.6761 29.1981C73.6761 27.9276 73.6452 26.5965 73.628 25.2371C72.5381 25.7304 71.6242 26.564 71.0138 27.6215C70.0758 29.2018 69.6621 31.0564 69.8355 32.9028Z" fill="url(#paint30_linear_231_1310)"/>
<path d="M70.8133 40.282C71.0135 39.1783 71.5304 38.1571 72.3008 37.3432C73.6458 35.919 73.6075 34.3521 72.5163 32.3221C72.4815 32.2594 72.3877 32.2177 72.339 32.2734C71.7343 32.9698 70.9106 33.4503 70.3963 35.4072C69.9739 37.032 70.096 38.7509 70.7438 40.2994C70.7492 40.3037 70.7556 40.3067 70.7624 40.3081C70.7691 40.3096 70.7761 40.3095 70.7829 40.3078C70.7896 40.3061 70.7958 40.3029 70.8011 40.2984C70.8064 40.294 70.8106 40.2883 70.8133 40.282Z" fill="url(#paint31_linear_231_1310)"/>
<path d="M72.3088 20.3297C72.622 20.0644 72.9632 19.8492 73.3236 19.6897C73.3236 19.196 73.3236 18.7096 73.3236 18.2268C72.8776 18.8361 72.5201 19.5295 72.2658 20.2785C72.2653 20.2854 72.2661 20.2923 72.2681 20.2988C72.2701 20.3052 72.2732 20.3111 72.2773 20.316C72.2814 20.3208 72.2864 20.3246 72.2918 20.327C72.2972 20.3294 72.303 20.3303 72.3088 20.3297Z" fill="url(#paint32_linear_231_1310)"/>
<path d="M66.8983 35.3959C66.9511 35.4202 66.9864 35.3682 66.9723 35.3128C66.7679 34.5959 66.7009 33.1033 66.2675 31.209C65.7459 28.8852 64.7697 27.5623 62.0737 26.648C62.0538 26.6411 62.0327 26.6381 62.0117 26.6395C61.9906 26.6408 61.9701 26.6463 61.9513 26.6557C61.9325 26.6651 61.9158 26.6782 61.9023 26.6941C61.8888 26.7101 61.8788 26.7286 61.8728 26.7485C61.4838 28.2865 61.7056 29.9125 62.4931 31.2956C63.4647 33.0997 65.0124 34.5403 66.8983 35.3959Z" fill="url(#paint33_linear_231_1310)"/>
<path d="M119.266 3.89484C113.598 2.84731 97.3039 0 97.3039 0C97.3039 0 81.0099 2.84731 75.3419 3.89484C74.7685 3.99965 74.2509 4.3045 73.8813 4.75511C73.5117 5.20571 73.3141 5.77283 73.3236 6.35548C73.4431 13.6144 73.6435 37.4826 73.8299 39.5846C74.7019 49.3112 94.0373 61.3402 97.3039 61.3402C100.57 61.3402 119.902 49.3182 120.778 39.5917C120.968 37.4826 121.165 13.6214 121.284 6.36251C121.295 5.77866 121.098 5.20986 120.729 4.75779C120.359 4.30572 119.84 3.99984 119.266 3.89484ZM118.932 39.0644C118.144 47.8524 101.4 58.5983 97.3039 59.4771C93.2075 58.5983 76.4635 47.8383 75.6759 39.0644C75.5106 37.2119 75.2364 9.57188 75.2047 6.14105C75.2037 6.04158 75.2387 5.9451 75.3034 5.86947C75.368 5.79385 75.4579 5.74422 75.5563 5.72977L97.3144 1.88415L119.065 5.72977C119.163 5.74559 119.252 5.79561 119.317 5.87093C119.381 5.94625 119.417 6.04197 119.417 6.14105C119.371 9.57188 119.097 37.2119 118.932 39.0644Z" fill="url(#paint34_linear_231_1310)"/>
<path d="M119.376 38.8704C118.585 47.6386 101.76 58.3569 97.6445 59.2337C93.5285 58.3569 76.7043 47.6211 75.9129 38.8704C75.7469 37.0185 75.4713 9.44418 75.4395 6.01755C75.4385 5.9187 75.4739 5.82289 75.5389 5.74802C75.6039 5.67315 75.6942 5.62434 75.7928 5.61071L97.6551 1.75269L119.521 5.61071C119.619 5.62572 119.708 5.67493 119.773 5.7495C119.838 5.82407 119.874 5.91911 119.874 6.01755C119.818 9.44418 119.542 37.0185 119.376 38.8704ZM119.376 38.8704C118.585 47.6386 101.76 58.3604 97.6445 59.2372C93.5285 58.3604 76.7043 47.6246 75.9129 38.8704C75.7469 37.022 75.4713 9.44418 75.4395 6.02106C75.4384 5.92181 75.4736 5.82554 75.5386 5.75009C75.6035 5.67464 75.6939 5.62512 75.7928 5.61071L97.6551 1.77373L119.51 5.59668C119.609 5.61246 119.698 5.66237 119.763 5.73752C119.828 5.81267 119.863 5.90818 119.864 6.00703C119.818 9.43015 119.542 37.008 119.376 38.8563V38.8704ZM119.376 38.8704C118.585 47.6386 101.76 58.3569 97.6445 59.2337C93.5285 58.3569 76.7043 47.6211 75.9129 38.8704C75.7469 37.0185 75.4713 9.44418 75.4395 6.01755C75.4385 5.9187 75.4739 5.82289 75.5389 5.74802C75.6039 5.67315 75.6942 5.62434 75.7928 5.61071L97.6551 1.75269L119.521 5.61071C119.619 5.62572 119.708 5.67493 119.773 5.7495C119.838 5.82407 119.874 5.91911 119.874 6.01755C119.818 9.44418 119.542 37.0185 119.376 38.8704Z" fill="#050706"/>
<path d="M101.536 31.5456C101.536 32.9587 100.903 33.6476 99.6504 33.6476C99.1753 33.6674 98.7068 33.5307 98.3162 33.2583C97.9256 32.986 97.6343 32.593 97.4867 32.1391C97.339 31.7858 97.1771 30.7931 96.9942 29.2174C96.9537 28.5417 96.7854 27.8798 96.4981 27.2673C96.2451 26.86 95.8779 26.5368 95.4426 26.3382C94.902 26.0909 94.3126 25.9701 93.7187 25.9849H92.4521V32.1356C92.44 32.3573 92.5032 32.5765 92.6316 32.7573C92.7369 32.8583 92.8611 32.9374 92.9969 32.9901C93.1327 33.0429 93.2776 33.0682 93.4232 33.0647L94.9219 33.1389V33.6441H88.1353V33.1318L89.2435 33.0965C89.5228 33.1038 89.7935 32.9996 89.9964 32.8068C90.1459 32.6156 90.2254 32.3786 90.2216 32.1356V19.7707C90.2252 19.653 90.2034 19.5359 90.1579 19.4273C90.1124 19.3188 90.0441 19.2214 89.9577 19.1418C89.7117 18.943 89.4135 18.8202 89.0993 18.7885C88.8248 18.7426 88.1353 18.7214 88.1353 18.7214V18.2268H95.703C96.5581 18.2355 97.3875 18.5217 98.0672 19.0429C98.4962 19.3794 98.8451 19.8076 99.0886 20.2965C99.332 20.7854 99.4639 21.3227 99.4745 21.8692C99.4846 22.5054 99.3085 23.1307 98.9679 23.6674C98.6728 24.1785 98.275 24.6225 97.7999 24.971C97.2369 25.402 96.5192 25.5822 95.601 25.727C96.2609 25.885 96.8851 26.1667 97.441 26.5572C97.8278 26.8243 98.148 27.1773 98.3768 27.5888C98.7118 28.2577 98.9488 28.9716 99.0805 29.7085C99.2951 30.6094 99.2775 31.3053 99.4042 31.6904C99.4469 31.8778 99.5537 32.0441 99.7062 32.1603C99.8586 32.2766 100.047 32.3353 100.238 32.3263C100.373 32.3143 100.501 32.2636 100.608 32.1803C100.714 32.097 100.795 31.9845 100.84 31.8565C100.886 31.7481 100.922 31.6358 100.949 31.5208L101.536 31.5456ZM92.4451 25.2465H93.7328C94.9606 25.2465 95.8015 25.0169 96.4946 24.5612C97.1877 24.1054 97.5501 23.2929 97.5501 22.1235C97.5816 21.4659 97.4473 20.8109 97.1595 20.2193C96.9378 19.7883 96.5732 19.4485 96.1287 19.2584C95.5317 19.064 94.9053 18.9767 94.2781 19.0005C93.4583 19.0005 92.9482 19.057 92.7547 19.1736C92.6564 19.2327 92.5765 19.3184 92.5243 19.4208C92.472 19.5232 92.4495 19.6383 92.4592 19.753L92.4451 25.2465Z" fill="url(#paint35_linear_231_1310)"/>
<path d="M105.139 29.145L105.298 27.4366H106.047L106.118 32.8246H105.45C105.132 30.7574 104.867 29.9832 103.753 29.1272C102.827 28.3828 101.677 27.9748 100.491 27.9693C99.6461 27.9822 98.8295 28.2757 98.1683 28.804C97.4266 29.4039 96.8781 30.2108 96.5919 31.1233C96.2195 32.1201 96.0334 33.5231 96.0334 35.3321C96.0334 37.0866 96.2195 38.4588 96.5919 39.4486C96.8782 40.3153 97.4162 41.076 98.1365 41.6329C98.8124 42.1104 99.6221 42.3593 100.448 42.3432C101.647 42.3432 102.619 42.2722 103.216 41.5476C103.813 40.8231 103.767 39.8037 103.767 38.7453V37.6336C103.773 37.5312 103.751 37.4293 103.706 37.3377C103.66 37.2461 103.591 37.1682 103.506 37.1115C103.229 36.9373 102.91 36.8405 102.583 36.8309L101.364 36.7919V36.2094H107.178V36.838L106.857 36.8629C106.563 36.8657 106.278 36.9573 106.037 37.1257C105.954 37.1966 105.889 37.2857 105.846 37.3861C105.803 37.4865 105.783 37.5955 105.789 37.7046V43.1104H105.153L104.697 41.3345C103.962 42.0449 103.538 42.4533 102.707 42.7765C102.013 43.0377 101.273 43.149 100.533 43.1033C99.2779 43.1117 98.0448 42.7712 96.9701 42.1195C95.8694 41.4528 94.973 40.4943 94.3791 39.3491C93.7516 38.0919 93.4248 36.7048 93.4248 35.2983C93.4248 33.8919 93.7516 32.5048 94.3791 31.2476C94.9883 30.0867 95.8903 29.1068 96.9948 28.4062C97.9875 27.7338 99.1523 27.3637 100.349 27.3407C101.032 27.3312 101.71 27.438 102.357 27.6568C103.352 28.0123 104.29 28.5138 105.139 29.145Z" fill="url(#paint36_linear_231_1310)"/>
</g>
</g>
<defs>
<linearGradient id="paint0_linear_231_1310" x1="137.917" y1="37.233" x2="157.61" y2="70.7243" gradientUnits="userSpaceOnUse">
<stop stop-color="#BDA976"/>
<stop offset="0.44" stop-color="#EDECBB"/>
<stop offset="1" stop-color="#C1953E"/>
</linearGradient>
<linearGradient id="paint1_linear_231_1310" x1="137.917" y1="37.233" x2="157.61" y2="70.7243" gradientUnits="userSpaceOnUse">
<stop stop-color="#BDA976"/>
<stop offset="0.44" stop-color="#EDECBB"/>
<stop offset="1" stop-color="#C1953E"/>
</linearGradient>
<linearGradient id="paint2_linear_231_1310" x1="137.917" y1="37.233" x2="157.61" y2="70.7243" gradientUnits="userSpaceOnUse">
<stop stop-color="#BDA976"/>
<stop offset="0.44" stop-color="#EDECBB"/>
<stop offset="1" stop-color="#C1953E"/>
</linearGradient>
<linearGradient id="paint3_linear_231_1310" x1="137.917" y1="37.233" x2="157.61" y2="70.7243" gradientUnits="userSpaceOnUse">
<stop stop-color="#BDA976"/>
<stop offset="0.44" stop-color="#EDECBB"/>
<stop offset="1" stop-color="#C1953E"/>
</linearGradient>
<linearGradient id="paint4_linear_231_1310" x1="137.917" y1="37.233" x2="157.61" y2="70.7243" gradientUnits="userSpaceOnUse">
<stop stop-color="#BDA976"/>
<stop offset="0.44" stop-color="#EDECBB"/>
<stop offset="1" stop-color="#C1953E"/>
</linearGradient>
<linearGradient id="paint5_linear_231_1310" x1="137.917" y1="37.233" x2="157.61" y2="70.7243" gradientUnits="userSpaceOnUse">
<stop stop-color="#BDA976"/>
<stop offset="0.44" stop-color="#EDECBB"/>
<stop offset="1" stop-color="#C1953E"/>
</linearGradient>
<linearGradient id="paint6_linear_231_1310" x1="-5.77258" y1="16.3889" x2="14.1104" y2="45.791" gradientUnits="userSpaceOnUse">
<stop stop-color="#BDA976"/>
<stop offset="0.44" stop-color="#EDECBB"/>
<stop offset="1" stop-color="#C1953E"/>
</linearGradient>
<linearGradient id="paint7_linear_231_1310" x1="-5.77258" y1="16.3889" x2="14.1104" y2="45.791" gradientUnits="userSpaceOnUse">
<stop stop-color="#BDA976"/>
<stop offset="0.44" stop-color="#EDECBB"/>
<stop offset="1" stop-color="#C1953E"/>
</linearGradient>
<linearGradient id="paint8_linear_231_1310" x1="-5.77258" y1="16.3889" x2="14.1104" y2="45.791" gradientUnits="userSpaceOnUse">
<stop stop-color="#BDA976"/>
<stop offset="0.44" stop-color="#EDECBB"/>
<stop offset="1" stop-color="#C1953E"/>
</linearGradient>
<linearGradient id="paint9_linear_231_1310" x1="-5.77258" y1="16.3889" x2="14.1104" y2="45.791" gradientUnits="userSpaceOnUse">
<stop stop-color="#BDA976"/>
<stop offset="0.44" stop-color="#EDECBB"/>
<stop offset="1" stop-color="#C1953E"/>
</linearGradient>
<linearGradient id="paint10_linear_231_1310" x1="-5.77258" y1="16.3889" x2="14.1104" y2="45.791" gradientUnits="userSpaceOnUse">
<stop stop-color="#BDA976"/>
<stop offset="0.44" stop-color="#EDECBB"/>
<stop offset="1" stop-color="#C1953E"/>
</linearGradient>
<linearGradient id="paint11_linear_231_1310" x1="45.1906" y1="29.4946" x2="115.997" y2="63.8638" gradientUnits="userSpaceOnUse">
<stop stop-color="#BDA976"/>
<stop offset="0.44" stop-color="#EDECBB"/>
<stop offset="1" stop-color="#C1953E"/>
</linearGradient>
<linearGradient id="paint12_linear_231_1310" x1="50.2721" y1="21.6152" x2="120.364" y2="54.5253" gradientUnits="userSpaceOnUse">
<stop stop-color="#BDA976"/>
<stop offset="0.44" stop-color="#EDECBB"/>
<stop offset="1" stop-color="#C1953E"/>
</linearGradient>
<linearGradient id="paint13_linear_231_1310" x1="43.75" y1="26.6202" x2="116.573" y2="63.3671" gradientUnits="userSpaceOnUse">
<stop stop-color="#BDA976"/>
<stop offset="0.44" stop-color="#EDECBB"/>
<stop offset="1" stop-color="#C1953E"/>
</linearGradient>
<linearGradient id="paint14_linear_231_1310" x1="53.001" y1="13.044" x2="123.924" y2="47.4195" gradientUnits="userSpaceOnUse">
<stop stop-color="#BDA976"/>
<stop offset="0.44" stop-color="#EDECBB"/>
<stop offset="1" stop-color="#C1953E"/>
</linearGradient>
<linearGradient id="paint15_linear_231_1310" x1="54.3597" y1="10.7687" x2="124.827" y2="45.191" gradientUnits="userSpaceOnUse">
<stop stop-color="#BDA976"/>
<stop offset="0.44" stop-color="#EDECBB"/>
<stop offset="1" stop-color="#C1953E"/>
</linearGradient>
<linearGradient id="paint16_linear_231_1310" x1="49.5494" y1="16.4892" x2="121.733" y2="52.2339" gradientUnits="userSpaceOnUse">
<stop stop-color="#BDA976"/>
<stop offset="0.44" stop-color="#EDECBB"/>
<stop offset="1" stop-color="#C1953E"/>
</linearGradient>
<linearGradient id="paint17_linear_231_1310" x1="63.436" y1="-12.2324" x2="136.164" y2="23.6696" gradientUnits="userSpaceOnUse">
<stop stop-color="#BDA976"/>
<stop offset="0.44" stop-color="#EDECBB"/>
<stop offset="1" stop-color="#C1953E"/>
</linearGradient>
<linearGradient id="paint18_linear_231_1310" x1="59.4588" y1="-5.17282" x2="131.657" y2="32.4189" gradientUnits="userSpaceOnUse">
<stop stop-color="#BDA976"/>
<stop offset="0.44" stop-color="#EDECBB"/>
<stop offset="1" stop-color="#C1953E"/>
</linearGradient>
<linearGradient id="paint19_linear_231_1310" x1="61.7365" y1="-1.70889" x2="131.684" y2="31.0576" gradientUnits="userSpaceOnUse">
<stop stop-color="#BDA976"/>
<stop offset="0.44" stop-color="#EDECBB"/>
<stop offset="1" stop-color="#C1953E"/>
</linearGradient>
<linearGradient id="paint20_linear_231_1310" x1="58.1623" y1="4.67644" x2="127.988" y2="38.4828" gradientUnits="userSpaceOnUse">
<stop stop-color="#BDA976"/>
<stop offset="0.44" stop-color="#EDECBB"/>
<stop offset="1" stop-color="#C1953E"/>
</linearGradient>
<linearGradient id="paint21_linear_231_1310" x1="70.9818" y1="-9.97818" x2="136.498" y2="16.7046" gradientUnits="userSpaceOnUse">
<stop stop-color="#BDA976"/>
<stop offset="0.44" stop-color="#EDECBB"/>
<stop offset="1" stop-color="#C1953E"/>
</linearGradient>
<linearGradient id="paint22_linear_231_1310" x1="60.7077" y1="-2.11988" x2="131.239" y2="32.73" gradientUnits="userSpaceOnUse">
<stop stop-color="#BDA976"/>
<stop offset="0.44" stop-color="#EDECBB"/>
<stop offset="1" stop-color="#C1953E"/>
</linearGradient>
<linearGradient id="paint23_linear_231_1310" x1="38.5875" y1="42.865" x2="109.449" y2="77.3042" gradientUnits="userSpaceOnUse">
<stop stop-color="#BDA976"/>
<stop offset="0.44" stop-color="#EDECBB"/>
<stop offset="1" stop-color="#C1953E"/>
</linearGradient>
<linearGradient id="paint24_linear_231_1310" x1="43.3877" y1="34.3625" x2="113.567" y2="67.3782" gradientUnits="userSpaceOnUse">
<stop stop-color="#BDA976"/>
<stop offset="0.44" stop-color="#EDECBB"/>
<stop offset="1" stop-color="#C1953E"/>
</linearGradient>
<linearGradient id="paint25_linear_231_1310" x1="40.3174" y1="35.408" x2="113.158" y2="72.1424" gradientUnits="userSpaceOnUse">
<stop stop-color="#BDA976"/>
<stop offset="0.44" stop-color="#EDECBB"/>
<stop offset="1" stop-color="#C1953E"/>
</linearGradient>
<linearGradient id="paint26_linear_231_1310" x1="45.4416" y1="29.095" x2="116.104" y2="63.6977" gradientUnits="userSpaceOnUse">
<stop stop-color="#BDA976"/>
<stop offset="0.44" stop-color="#EDECBB"/>
<stop offset="1" stop-color="#C1953E"/>
</linearGradient>
<linearGradient id="paint27_linear_231_1310" x1="42.6378" y1="32.5833" x2="114.682" y2="68.2316" gradientUnits="userSpaceOnUse">
<stop stop-color="#BDA976"/>
<stop offset="0.44" stop-color="#EDECBB"/>
<stop offset="1" stop-color="#C1953E"/>
</linearGradient>
<linearGradient id="paint28_linear_231_1310" x1="54.2133" y1="9.99087" x2="126.9" y2="45.8282" gradientUnits="userSpaceOnUse">
<stop stop-color="#BDA976"/>
<stop offset="0.44" stop-color="#EDECBB"/>
<stop offset="1" stop-color="#C1953E"/>
</linearGradient>
<linearGradient id="paint29_linear_231_1310" x1="51.7574" y1="14.0286" x2="123.55" y2="51.3698" gradientUnits="userSpaceOnUse">
<stop stop-color="#BDA976"/>
<stop offset="0.44" stop-color="#EDECBB"/>
<stop offset="1" stop-color="#C1953E"/>
</linearGradient>
<linearGradient id="paint30_linear_231_1310" x1="50.8833" y1="18.6105" x2="120.905" y2="51.3487" gradientUnits="userSpaceOnUse">
<stop stop-color="#BDA976"/>
<stop offset="0.44" stop-color="#EDECBB"/>
<stop offset="1" stop-color="#C1953E"/>
</linearGradient>
<linearGradient id="paint31_linear_231_1310" x1="47.862" y1="24.7697" x2="117.834" y2="58.5972" gradientUnits="userSpaceOnUse">
<stop stop-color="#BDA976"/>
<stop offset="0.44" stop-color="#EDECBB"/>
<stop offset="1" stop-color="#C1953E"/>
</linearGradient>
<linearGradient id="paint32_linear_231_1310" x1="56.5918" y1="9.94671" x2="122.108" y2="36.6295" gradientUnits="userSpaceOnUse">
<stop stop-color="#BDA976"/>
<stop offset="0.44" stop-color="#EDECBB"/>
<stop offset="1" stop-color="#C1953E"/>
</linearGradient>
<linearGradient id="paint33_linear_231_1310" x1="48.1357" y1="23.1987" x2="118.562" y2="57.9122" gradientUnits="userSpaceOnUse">
<stop stop-color="#BDA976"/>
<stop offset="0.44" stop-color="#EDECBB"/>
<stop offset="1" stop-color="#C1953E"/>
</linearGradient>
<linearGradient id="paint34_linear_231_1310" x1="97.3039" y1="1.56426" x2="97.3039" y2="56.9497" gradientUnits="userSpaceOnUse">
<stop stop-color="#CCC2A5"/>
<stop offset="0.22" stop-color="#E6DAC2"/>
<stop offset="0.39" stop-color="#EAE7D1"/>
<stop offset="0.42" stop-color="#A9A28E"/>
<stop offset="0.44" stop-color="#756A58"/>
<stop offset="0.45" stop-color="#4F4232"/>
<stop offset="0.47" stop-color="#382A1B"/>
<stop offset="0.48" stop-color="#302112"/>
<stop offset="0.62" stop-color="#543517"/>
<stop offset="0.86" stop-color="#A98955"/>
<stop offset="1" stop-color="#CAA74B"/>
</linearGradient>
<linearGradient id="paint35_linear_231_1310" x1="90.313" y1="22.2083" x2="102.08" y2="38.9046" gradientUnits="userSpaceOnUse">
<stop stop-color="#BDA976"/>
<stop offset="0.44" stop-color="#EDECBB"/>
<stop offset="1" stop-color="#C1953E"/>
</linearGradient>
<linearGradient id="paint36_linear_231_1310" x1="91.6962" y1="21.2494" x2="103.525" y2="38.0278" gradientUnits="userSpaceOnUse">
<stop stop-color="#BDA976"/>
<stop offset="0.44" stop-color="#EDECBB"/>
<stop offset="1" stop-color="#C1953E"/>
</linearGradient>
<clipPath id="clip0_231_1310">
<rect width="73" height="68" fill="white" transform="translate(60.9805)"/>
</clipPath>
<clipPath id="clip1_231_1310">
<rect width="73" height="68" fill="white" transform="translate(60.9805)"/>
</clipPath>
</defs>
</svg>
