<svg width="55" height="50" viewBox="0 0 55 50" fill="none" xmlns="http://www.w3.org/2000/svg">
<g clip-path="url(#clip0_553_716)">
<g clip-path="url(#clip1_553_716)">
<path d="M38.9828 45.4428C37.9306 46.0169 36.734 46.2737 35.5383 46.1819C35.5275 46.1804 35.5165 46.1826 35.5071 46.188C35.4976 46.1934 35.4903 46.2018 35.4861 46.2119C35.482 46.2219 35.4813 46.233 35.4842 46.2435C35.487 46.254 35.4933 46.2632 35.502 46.2698C36.9295 47.3546 38.6751 47.9404 40.4694 47.9367C41.863 47.9699 43.2172 47.4738 44.2584 46.5489C44.2843 46.5227 44.2988 46.4874 44.2988 46.4507C44.2988 46.4139 44.2843 46.3786 44.2584 46.3525C42.4532 44.6675 40.819 44.4426 38.9828 45.4428Z" fill="url(#paint0_linear_553_716)"/>
<path d="M38.1998 41.9435C38.1966 41.9548 38.1973 41.9669 38.2016 41.9778C38.206 41.9887 38.2138 41.9978 38.2237 42.0036C38.2337 42.0093 38.2453 42.0114 38.2566 42.0095C38.2678 42.0076 38.2782 42.0019 38.2859 41.9932C39.5733 40.6359 40.3935 38.8803 40.6206 36.9958C40.6473 36.7782 40.6634 36.5593 40.6688 36.3401C39.8462 37.2134 38.9807 38.0426 38.0757 38.8244C38.3609 39.8385 38.4034 40.9088 38.1998 41.9435Z" fill="url(#paint1_linear_553_716)"/>
<path d="M34.737 43.4923C34.734 43.5041 34.7353 43.5166 34.7409 43.5276C34.7465 43.5386 34.7559 43.5473 34.7676 43.5523C34.7792 43.5572 34.7923 43.5581 34.8045 43.5547C34.8167 43.5513 34.8273 43.5439 34.8344 43.5338C35.7725 42.5055 36.4394 41.2759 36.779 39.9485C36.0867 40.4677 35.3916 40.961 34.7046 41.4231C34.8343 42.1064 34.8452 42.8055 34.737 43.4923Z" fill="url(#paint2_linear_553_716)"/>
<path d="M53.3385 30.6402C51.0206 30.3138 49.6283 31.0289 48.7494 32.8089C48.3326 33.6474 47.7231 34.3754 46.9708 34.9335C47.5677 33.7095 48.0469 32.4315 48.402 31.117C50.0829 30.8747 51.6388 30.0905 52.8329 28.8836C53.783 27.9613 54.3473 26.713 54.4118 25.3909C54.4115 25.3737 54.4077 25.3567 54.4007 25.3409C54.3937 25.3252 54.3837 25.3109 54.3711 25.2991C54.3586 25.2873 54.3438 25.2781 54.3276 25.2721C54.3114 25.266 54.2942 25.2633 54.277 25.264C51.9436 25.3598 50.6991 26.3004 50.152 28.2229C49.8503 29.2792 49.2595 30.2304 48.446 30.9693C49.2816 27.6811 49.4796 24.2634 49.0294 20.9008C50.2424 19.9956 51.1307 18.7234 51.5625 17.2734C51.9307 16.1362 51.8529 14.9016 51.3447 13.8196C51.3374 13.8055 51.3272 13.793 51.3149 13.783C51.3026 13.7729 51.2884 13.7654 51.2731 13.7611C51.2578 13.7567 51.2418 13.7555 51.226 13.7576C51.2102 13.7596 51.195 13.7649 51.1813 13.773C49.3665 14.8405 48.7701 16.1256 49.1435 17.8823C49.3391 18.8016 49.2881 19.7562 48.9957 20.6494C48.8211 19.3319 48.534 18.0316 48.1375 16.763C47.6429 15.2093 46.9575 13.7228 46.0971 12.3376C46.5685 11.2902 46.6859 10.1178 46.4315 8.99784C46.2651 8.20432 45.8391 7.48873 45.2207 6.96392C45.2078 7.98736 45.1948 9.16366 45.1793 10.4281C45.5871 10.9341 45.8656 11.5316 45.9908 12.1692C45.5621 11.4753 45.0606 10.8291 44.4948 10.2415L44.3833 10.625L44.7541 11.2131C49.6205 17.548 49.6153 28.0311 45.4022 35.2029C42.9089 39.4917 38.9501 42.7367 34.2537 44.3413C34.1183 44.1597 33.9428 44.0117 33.7409 43.9088C33.539 43.8059 33.3162 43.7509 33.0896 43.748C32.7225 43.7651 32.3723 43.907 32.097 44.1501C31.8217 44.3932 31.6376 44.723 31.5754 45.0849C31.0845 45.1659 30.5874 45.2041 30.0898 45.1989C29.9835 44.66 29.7087 44.0952 29.0527 43.9034H26.0711C25.423 44.0926 25.1456 44.6574 25.0341 45.1989C24.5356 45.2041 24.0377 45.166 23.5459 45.0849C23.4836 44.723 23.2996 44.3932 23.0243 44.1501C22.7489 43.907 22.3988 43.7651 22.0317 43.748C21.8052 43.7514 21.5825 43.8067 21.3808 43.9096C21.179 44.0124 21.0034 44.1601 20.8676 44.3413C16.1716 42.7361 12.2129 39.4912 9.71905 35.2029C5.50853 28.0311 5.50075 17.548 10.3672 11.2131L10.7535 10.625L10.6395 10.2415C10.073 10.8273 9.57067 11.4718 9.14088 12.164C9.26727 11.5268 9.54565 10.9295 9.95239 10.4229C9.93684 9.15848 9.92387 7.98217 9.91091 6.95874C9.29877 7.4852 8.87845 8.19954 8.71568 8.99006C8.46306 10.1104 8.58134 11.2824 9.05273 12.3298C8.19028 13.7143 7.50397 15.2009 7.00969 16.7552C6.61541 18.0243 6.3292 19.3244 6.1541 20.6417C5.86045 19.7487 5.80857 18.794 6.00373 17.8745C6.37708 16.1178 5.79113 14.8327 3.96587 13.7652C3.9524 13.7571 3.93741 13.7519 3.92182 13.7499C3.90624 13.7479 3.8904 13.7491 3.87531 13.7535C3.86022 13.7578 3.84619 13.7653 3.83411 13.7753C3.82204 13.7854 3.81217 13.7978 3.80513 13.8119C3.29554 14.8934 3.21675 16.1282 3.58475 17.2656C4.01719 18.716 4.90648 19.9882 6.1204 20.893C5.66999 24.2538 5.86712 27.6696 6.70116 30.9563C5.88591 30.2185 5.29399 29.267 4.99258 28.2099C4.44811 26.3004 3.20622 25.3598 0.867611 25.251C0.850405 25.2499 0.833162 25.2524 0.816975 25.2584C0.800788 25.2643 0.78601 25.2735 0.773578 25.2854C0.761147 25.2974 0.751333 25.3118 0.744758 25.3277C0.738183 25.3436 0.734991 25.3607 0.735384 25.378C0.793859 26.7047 1.35783 27.9589 2.31174 28.8836C3.5044 30.0943 5.06038 30.8822 6.74264 31.1273C7.09744 32.4424 7.57756 33.7204 8.1764 34.9438C7.4241 34.3858 6.81463 33.6578 6.39782 32.8192C5.5163 31.0392 4.12403 30.3241 1.80616 30.6506C1.78904 30.6531 1.7726 30.659 1.75781 30.668C1.74301 30.6769 1.73016 30.6888 1.72001 30.7028C1.70986 30.7168 1.70262 30.7327 1.69872 30.7495C1.69481 30.7664 1.69432 30.7838 1.69727 30.8009C1.99864 32.0891 2.7791 33.2146 3.88032 33.9489C5.20135 34.8714 6.77483 35.3644 8.38641 35.361C9.07364 36.689 9.90858 37.9354 10.8754 39.0764C10.9532 39.1671 11.031 39.25 11.1061 39.3355C10.0345 38.9611 9.09489 38.2832 8.40197 37.3845C7.18859 35.8118 5.68223 35.3869 3.47586 36.1616C3.44321 36.1743 3.41695 36.1995 3.40285 36.2315C3.38875 36.2636 3.38796 36.3 3.40067 36.3326C3.9491 37.5351 4.93426 38.4844 6.1567 38.9883C7.71518 39.674 9.45578 39.8297 11.1113 39.4314C11.122 39.4285 11.1315 39.422 11.1381 39.4131C11.1446 39.4042 11.148 39.3933 11.1476 39.3822C12.374 40.7824 13.7671 42.0276 15.2959 43.0899C14.141 42.8712 13.0663 42.3459 12.1847 41.569C10.5357 40.1154 8.8142 39.9651 6.57153 41.2684C6.55511 41.2782 6.54084 41.2912 6.52955 41.3067C6.51827 41.3221 6.51022 41.3397 6.50586 41.3583C6.50151 41.3769 6.50095 41.3962 6.50421 41.415C6.50747 41.4339 6.51449 41.4518 6.52486 41.4679C7.37148 42.6623 8.64157 43.4897 10.0768 43.7816C11.9018 44.1992 13.8132 44.0109 15.5215 43.2453C17.0684 44.2898 18.7375 45.1408 20.4917 45.7793C20.6032 46.6369 21.2513 47.2924 22.0473 47.2924C22.2958 47.2876 22.5392 47.2215 22.7559 47.0999C22.9726 46.9783 23.1558 46.805 23.2892 46.5954C23.988 46.7548 24.6965 46.869 25.41 46.9374C26.1204 48.0153 27.5801 50 27.5801 50C27.5801 50 29.0424 48.0153 29.7502 46.9374C30.4646 46.8691 31.1739 46.7549 31.8736 46.5954C32.0066 46.8048 32.1893 46.978 32.4056 47.0996C32.6218 47.2212 32.8648 47.2874 33.1129 47.2924C33.8907 47.2924 34.5466 46.6369 34.6685 45.7793C36.4226 45.1408 38.0918 44.2898 39.6387 43.2453C41.347 44.0107 43.2584 44.199 45.0833 43.7816C46.5188 43.4886 47.7894 42.6616 48.6379 41.4679C48.6482 41.4517 48.655 41.4336 48.6581 41.4146C48.6612 41.3957 48.6604 41.3763 48.6558 41.3577C48.6512 41.339 48.6429 41.3215 48.6313 41.3062C48.6198 41.2909 48.6053 41.278 48.5886 41.2684C46.3512 39.9729 44.6244 40.1154 42.9781 41.569C42.0964 42.3459 41.0217 42.8712 39.8668 43.0899C41.3957 42.0276 42.7888 40.7824 44.0151 39.3822C44.0141 39.393 44.0169 39.4039 44.0231 39.4129C44.0292 39.4219 44.0384 39.4284 44.0488 39.4314C45.6995 39.8262 47.434 39.6706 48.9879 38.9883C50.2147 38.486 51.2039 37.5354 51.7543 36.33C51.7609 36.3137 51.7641 36.2963 51.7638 36.2787C51.7634 36.2611 51.7594 36.2438 51.7522 36.2278C51.7449 36.2118 51.7344 36.1975 51.7214 36.1856C51.7084 36.1738 51.6932 36.1648 51.6765 36.159C49.4702 35.3817 47.9638 35.8092 46.7504 37.3819C46.058 38.2812 45.1183 38.9592 44.0463 39.3329C44.124 39.2449 44.2018 39.1619 44.277 39.0738C45.2417 37.9333 46.0749 36.6878 46.7608 35.361C48.3729 35.3624 49.9462 34.8676 51.2669 33.9437C52.3677 33.2095 53.1474 32.0839 53.4473 30.7957C53.4515 30.7783 53.4519 30.7601 53.4485 30.7425C53.4452 30.7249 53.4381 30.7082 53.4278 30.6935C53.4175 30.6788 53.4043 30.6665 53.3889 30.6573C53.3734 30.6481 53.3563 30.6423 53.3385 30.6402Z" fill="url(#paint3_linear_553_716)"/>
<path d="M44.7673 29.0827C44.6448 30.1463 44.3092 31.175 43.7803 32.1084C44.3885 32.9622 44.7519 33.9636 44.8319 35.006C44.832 35.0162 44.8356 35.0262 44.8421 35.0342C44.8486 35.0422 44.8576 35.0479 44.8677 35.0502C44.8778 35.0526 44.8884 35.0515 44.8978 35.0472C44.9073 35.0429 44.915 35.0356 44.9197 35.0265C45.7278 33.5465 46.0237 31.8445 45.762 30.1817C45.6385 29.3367 45.3154 28.5326 44.8189 27.835C44.8009 28.4601 44.7854 28.8931 44.7673 29.0827Z" fill="url(#paint4_linear_553_716)"/>
<path d="M41.7857 38.8613C41.7834 38.8721 41.7851 38.8833 41.7905 38.893C41.7958 38.9027 41.8045 38.9103 41.815 38.9143C41.8255 38.9184 41.8372 38.9187 41.8478 38.9151C41.8585 38.9116 41.8676 38.9045 41.8735 38.8951C42.9373 37.5398 43.516 35.88 43.5205 34.1713C43.5243 33.7747 43.486 33.3787 43.4061 32.9897C42.7504 33.9817 42.0079 34.9161 41.187 35.7824C41.6685 36.7365 41.8754 37.8009 41.7857 38.8613Z" fill="url(#paint5_linear_553_716)"/>
<path d="M48.3378 15.9405C48.3373 15.9487 48.3397 15.9568 48.3445 15.9636C48.3492 15.9704 48.3562 15.9754 48.3642 15.9778C48.3723 15.9802 48.3809 15.9799 48.3887 15.977C48.3966 15.974 48.4032 15.9686 48.4075 15.9615C49.1646 14.8833 49.5408 13.5913 49.4785 12.2834C49.4535 11.2656 49.0363 10.2949 48.3111 9.56688C48.3018 9.55717 48.2906 9.54944 48.2782 9.54415C48.2657 9.53886 48.2523 9.53613 48.2388 9.53613C48.2252 9.53613 48.2118 9.53886 48.1994 9.54415C48.1869 9.54944 48.1757 9.55717 48.1665 9.56688C46.975 10.9356 46.8625 12.1337 47.6711 13.4394C48.1376 14.1913 48.3694 15.0608 48.3378 15.9405Z" fill="url(#paint6_linear_553_716)"/>
<path d="M45.0767 17.8344L45.1364 17.847C46.0676 18.0206 46.9245 18.4421 47.6031 19.0601C47.6088 19.0661 47.6165 19.0702 47.625 19.0716C47.6335 19.073 47.6422 19.0717 47.6498 19.0678C47.6574 19.064 47.6633 19.0579 47.6667 19.0506C47.6701 19.0432 47.6706 19.035 47.6683 19.0272C47.3503 17.7402 46.5868 16.5859 45.495 15.7419C45.3681 15.6428 45.2357 15.55 45.0984 15.4639C45.1011 16.2473 45.0902 17.0459 45.0767 17.8344Z" fill="url(#paint7_linear_553_716)"/>
<path d="M45.0767 21.4624C45.3486 21.7874 45.6744 22.0597 46.0387 22.2666C46.8049 22.7197 47.427 23.3937 47.8289 24.2064C47.8327 24.2136 47.8386 24.2194 47.8457 24.2229C47.8529 24.2264 47.8609 24.2276 47.8688 24.2261C47.8766 24.2247 47.8838 24.2207 47.8893 24.2149C47.8948 24.209 47.8984 24.2014 47.8996 24.1933C48.0299 22.8344 47.7256 21.4689 47.0335 20.3059C46.5848 19.5301 45.9131 18.9185 45.112 18.5566C45.0994 19.5409 45.0893 20.5173 45.0767 21.4624Z" fill="url(#paint8_linear_553_716)"/>
<path d="M45.9297 23.7707C45.126 25.2589 45.1005 26.4076 46.0854 27.4516C46.651 28.0483 47.0305 28.797 47.1774 29.6061C47.1774 29.6149 47.1809 29.6233 47.1871 29.6295C47.1934 29.6358 47.2018 29.6393 47.2106 29.6393C47.2194 29.6393 47.2278 29.6358 47.2341 29.6295C47.2403 29.6233 47.2438 29.6149 47.2438 29.6061C47.7128 28.4688 47.7971 27.2092 47.4836 26.0196C47.106 24.5901 46.5038 24.2327 46.0573 23.7222C46.0241 23.6941 45.9476 23.7247 45.9297 23.7707Z" fill="url(#paint9_linear_553_716)"/>
<path d="M45.8545 14.9107C45.6674 14.36 45.4046 13.8501 45.0767 13.4021C45.0767 13.7598 45.0767 14.1174 45.0767 14.4778C45.3417 14.5951 45.5925 14.7533 45.8228 14.9484C45.8271 14.9488 45.8313 14.9481 45.8353 14.9463C45.8393 14.9446 45.843 14.9418 45.846 14.9383C45.849 14.9347 45.8513 14.9304 45.8528 14.9256C45.8542 14.9209 45.8548 14.9158 45.8545 14.9107Z" fill="url(#paint10_linear_553_716)"/>
<path d="M50.5229 22.9478C50.2086 24.3407 50.1619 25.4382 50.0034 25.9653C50.0034 26.0061 50.0164 26.0443 50.0554 26.0264C51.444 25.3972 52.5831 24.3378 53.2972 23.0115C53.8767 21.9943 54.041 20.7994 53.757 19.6681C53.7523 19.6534 53.7446 19.6397 53.7344 19.628C53.7242 19.6162 53.7117 19.6066 53.6977 19.5997C53.6836 19.5928 53.6682 19.5888 53.6526 19.5879C53.6369 19.5869 53.6211 19.5891 53.6063 19.5942C51.6269 20.2665 50.91 21.2392 50.5229 22.9478Z" fill="url(#paint11_linear_553_716)"/>
<path d="M19.6194 46.1822C18.4222 46.2742 17.224 46.0174 16.1705 45.4431C14.3294 44.4429 12.6932 44.6678 10.8909 46.3476C10.8774 46.3602 10.8667 46.3754 10.8593 46.3923C10.8519 46.4092 10.8481 46.4274 10.8481 46.4458C10.8481 46.4642 10.8519 46.4825 10.8593 46.4994C10.8667 46.5162 10.8774 46.5315 10.8909 46.544C11.9288 47.4687 13.2799 47.9665 14.6717 47.937C16.4683 47.9413 18.2163 47.3554 19.6453 46.2701C19.6532 46.264 19.6591 46.2558 19.6622 46.2464C19.6652 46.2369 19.6654 46.2268 19.6626 46.2173C19.6598 46.2078 19.6541 46.1993 19.6464 46.1931C19.6387 46.1868 19.6293 46.183 19.6194 46.1822Z" fill="url(#paint12_linear_553_716)"/>
<path d="M16.8661 41.9932C16.8738 42.0019 16.8841 42.0076 16.8954 42.0095C16.9067 42.0114 16.9183 42.0093 16.9283 42.0036C16.9383 41.9978 16.9461 41.9887 16.9505 41.9778C16.9548 41.9669 16.9555 41.9548 16.9523 41.9435C16.7466 40.9092 16.7875 39.8389 17.0716 38.8244C16.1665 38.0425 15.301 37.2133 14.4785 36.3401C14.4839 36.5593 14.5 36.7782 14.5267 36.9958C14.7543 38.8803 15.5761 40.6359 16.8661 41.9932Z" fill="url(#paint13_linear_553_716)"/>
<path d="M20.4102 43.5021C20.3011 42.8124 20.312 42.1102 20.4426 41.424C19.7556 40.9616 19.0606 40.468 18.3682 39.9485C18.7078 41.2766 19.3747 42.507 20.3128 43.5359C20.3197 43.5448 20.3295 43.5513 20.3406 43.5545C20.3517 43.5577 20.3636 43.5574 20.3745 43.5536C20.3854 43.5499 20.3948 43.5428 20.4012 43.5335C20.4076 43.5242 20.4108 43.5132 20.4102 43.5021Z" fill="url(#paint14_linear_553_716)"/>
<path d="M10.3114 35.0155C10.3916 33.9717 10.7564 32.969 11.3669 32.114C10.8387 31.1789 10.5045 30.1489 10.384 29.0843C10.3659 28.8945 10.3503 28.4609 10.3322 27.835C9.83386 28.5335 9.50951 29.3387 9.38555 30.1849C9.12285 31.8498 9.41988 33.5541 10.231 35.036C10.2367 35.0423 10.2441 35.047 10.2523 35.0495C10.2605 35.0519 10.2692 35.0521 10.2775 35.05C10.2858 35.0479 10.2934 35.0435 10.2994 35.0374C10.3053 35.0313 10.3095 35.0237 10.3114 35.0155Z" fill="url(#paint15_linear_553_716)"/>
<path d="M13.3709 38.8504C13.2789 37.7922 13.4826 36.7294 13.9602 35.7758C13.1395 34.9118 12.3969 33.9796 11.7409 32.9897C11.6612 33.3781 11.6229 33.7736 11.6267 34.1697C11.6335 35.8768 12.2137 37.5344 13.278 38.8868C13.2829 38.8989 13.2925 38.9085 13.3047 38.9136C13.3169 38.9187 13.3307 38.9189 13.343 38.9141C13.3553 38.9093 13.3652 38.8998 13.3704 38.8879C13.3756 38.876 13.3758 38.8625 13.3709 38.8504Z" fill="url(#paint16_linear_553_716)"/>
<path d="M7.07306 15.929C7.04341 15.0534 7.27489 14.1884 7.73904 13.4404C8.54143 12.1264 8.43177 10.936 7.24423 9.56688C7.23498 9.55718 7.22379 9.54944 7.21137 9.54415C7.19895 9.53886 7.18556 9.53613 7.17202 9.53613C7.15848 9.53613 7.14509 9.53886 7.13267 9.54415C7.12024 9.54944 7.10906 9.55718 7.0998 9.56688C6.37358 10.2902 5.95473 11.2579 5.92831 12.2736C5.8647 13.582 6.24061 14.8747 6.99817 15.9526C7.00136 15.9624 7.00837 15.9705 7.01765 15.9752C7.02693 15.9798 7.03772 15.9807 7.04765 15.9776C7.05758 15.9744 7.06583 15.9676 7.0706 15.9584C7.07536 15.9493 7.07625 15.9387 7.07306 15.929Z" fill="url(#paint17_linear_553_716)"/>
<path d="M7.55956 18.7947C8.23403 18.1798 9.08573 17.7604 10.0112 17.5877L10.0706 17.5751C10.0706 16.7905 10.0463 15.9959 10.0382 15.2063C9.9017 15.292 9.77012 15.3844 9.644 15.4829C8.5589 16.3228 7.80001 17.4713 7.48396 18.752C7.47788 18.7613 7.47602 18.7725 7.4788 18.7831C7.48159 18.7938 7.48879 18.8029 7.49881 18.8086C7.50884 18.8142 7.52087 18.816 7.53226 18.8134C7.54366 18.8108 7.55348 18.8041 7.55956 18.7947Z" fill="url(#paint18_linear_553_716)"/>
<path d="M7.24618 24.1932C7.24734 24.2014 7.25094 24.2089 7.25647 24.2148C7.262 24.2207 7.26918 24.2247 7.277 24.2261C7.28482 24.2276 7.29287 24.2264 7.30003 24.2229C7.30719 24.2193 7.3131 24.2135 7.31691 24.2063C7.71775 23.3889 8.34015 22.7105 9.10777 22.2542C9.4706 22.0531 9.79638 21.7874 10.0701 21.4691C10.0701 20.5349 10.0474 19.5563 10.0348 18.5566C9.23341 18.9194 8.56139 19.5323 8.11257 20.3099C7.42288 21.4719 7.11864 22.8356 7.24618 24.1932Z" fill="url(#paint19_linear_553_716)"/>
<path d="M7.96571 29.6193C8.11288 28.8077 8.49296 28.0568 9.05943 27.4584C10.0484 26.4112 10.0203 25.2591 9.21787 23.7664C9.19232 23.7203 9.12332 23.6896 9.08754 23.7306C8.6429 24.2426 8.03727 24.596 7.65906 26.0348C7.34847 27.2296 7.43825 28.4934 7.91461 29.6321C7.91859 29.6352 7.92326 29.6374 7.92823 29.6385C7.93321 29.6396 7.93837 29.6395 7.94331 29.6383C7.94825 29.637 7.95284 29.6347 7.95672 29.6314C7.96061 29.6281 7.96368 29.6239 7.96571 29.6193Z" fill="url(#paint20_linear_553_716)"/>
<path d="M9.06495 14.9484C9.29525 14.7533 9.54613 14.5951 9.81112 14.4778C9.81112 14.1147 9.81112 13.7571 9.81112 13.4021C9.48321 13.8501 9.22034 14.36 9.0333 14.9107C9.03296 14.9158 9.03354 14.9209 9.03501 14.9256C9.03648 14.9304 9.0388 14.9347 9.04181 14.9383C9.04482 14.9418 9.04845 14.9446 9.05245 14.9463C9.05644 14.9481 9.06071 14.9488 9.06495 14.9484Z" fill="url(#paint21_linear_553_716)"/>
<path d="M5.08679 26.0264C5.12566 26.0443 5.15158 26.0061 5.14121 25.9653C4.99092 25.4382 4.94168 24.3407 4.62295 22.9478C4.23944 21.2392 3.52165 20.2664 1.53932 19.5942C1.52471 19.589 1.50919 19.5869 1.49371 19.5879C1.47822 19.5888 1.46311 19.5929 1.44928 19.5998C1.43545 19.6067 1.42321 19.6164 1.41329 19.6281C1.40338 19.6398 1.396 19.6534 1.39161 19.668C1.1056 20.799 1.26867 21.9945 1.84768 23.0115C2.5621 24.338 3.70012 25.3973 5.08679 26.0264Z" fill="url(#paint22_linear_553_716)"/>
<path d="M43.5924 2.86385C39.4247 2.09361 27.4438 0 27.4438 0C27.4438 0 15.463 2.09361 11.2953 2.86385C10.8737 2.94092 10.4931 3.16507 10.2214 3.4964C9.94961 3.82773 9.80429 4.24473 9.81128 4.67315C9.89918 10.0106 10.0465 27.5607 10.1836 29.1064C10.8248 36.2582 25.042 45.1031 27.4438 45.1031C29.8457 45.1031 44.0603 36.2634 44.7041 29.1115C44.8437 27.5607 44.9885 10.0157 45.0764 4.67831C45.0846 4.24901 44.9399 3.83078 44.668 3.49838C44.3961 3.16597 44.0149 2.94106 43.5924 2.86385ZM43.3468 28.7238C42.7676 35.1856 30.4559 43.087 27.4438 43.7332C24.4318 43.087 12.1201 35.1752 11.5409 28.7238C11.4194 27.3617 11.2177 7.03815 11.1945 4.51548C11.1937 4.44234 11.2195 4.37139 11.267 4.31579C11.3145 4.26019 11.3806 4.22369 11.453 4.21307L27.4516 1.3854L43.445 4.21307C43.5169 4.2247 43.5824 4.26148 43.6298 4.31686C43.6771 4.37224 43.7033 4.44263 43.7035 4.51548C43.6699 7.03815 43.4683 27.3617 43.3468 28.7238Z" fill="url(#paint23_linear_553_716)"/>
<path d="M43.673 28.581C43.0911 35.0282 30.7204 42.9093 27.6939 43.554C24.6675 42.9093 12.2967 35.0153 11.7148 28.581C11.5927 27.2193 11.3901 6.94408 11.3667 4.42451C11.366 4.35182 11.392 4.28137 11.4398 4.22632C11.4876 4.17127 11.554 4.13538 11.6265 4.12536L27.7017 1.28857L43.7796 4.12536C43.8516 4.1364 43.9174 4.17258 43.965 4.22741C44.0126 4.28224 44.0389 4.35212 44.0393 4.42451C43.9978 6.94408 43.7951 27.2193 43.673 28.581ZM43.673 28.581C43.0911 35.0282 30.7204 42.9119 27.6939 43.5566C24.6675 42.9119 12.2967 35.0179 11.7148 28.581C11.5927 27.2219 11.3901 6.94408 11.3667 4.42709C11.3659 4.35411 11.3918 4.28332 11.4396 4.22785C11.4874 4.17237 11.5538 4.13596 11.6265 4.12536L27.7017 1.30405L43.7718 4.11504C43.844 4.12664 43.9098 4.16334 43.9574 4.2186C44.005 4.27386 44.0312 4.34408 44.0315 4.41677C43.9978 6.93377 43.7951 27.2116 43.673 28.5707V28.581ZM43.673 28.581C43.0911 35.0282 30.7204 42.9093 27.6939 43.554C24.6675 42.9093 12.2967 35.0153 11.7148 28.581C11.5927 27.2193 11.3901 6.94408 11.3667 4.42451C11.366 4.35182 11.392 4.28137 11.4398 4.22632C11.4876 4.17127 11.554 4.13538 11.6265 4.12536L27.7017 1.28857L43.7796 4.12536C43.8516 4.1364 43.9174 4.17258 43.965 4.22741C44.0126 4.28224 44.0389 4.35212 44.0393 4.42451C43.9978 6.94408 43.7951 27.2193 43.673 28.581Z" fill="#050706"/>
<path d="M30.5558 23.1953C30.5558 24.2344 30.0902 24.7409 29.1692 24.7409C28.8199 24.7554 28.4754 24.6549 28.1882 24.4547C27.901 24.2545 27.6868 23.9655 27.5782 23.6317C27.4696 23.372 27.3506 22.642 27.2161 21.4834C27.1863 20.9865 27.0625 20.4999 26.8513 20.0495C26.6652 19.75 26.3953 19.5124 26.0752 19.3663C25.6777 19.1845 25.2443 19.0957 24.8076 19.1066H23.8763V23.6291C23.8674 23.7921 23.9139 23.9534 24.0083 24.0863C24.0857 24.1605 24.177 24.2187 24.2769 24.2575C24.3768 24.2963 24.4833 24.3149 24.5903 24.3123L25.6924 24.3669V24.7383H20.7021V24.3617L21.517 24.3357C21.7224 24.3411 21.9214 24.2645 22.0706 24.1227C22.1806 23.9821 22.239 23.8078 22.2362 23.6291V14.5373C22.2388 14.4507 22.2229 14.3646 22.1894 14.2848C22.1559 14.2051 22.1057 14.1334 22.0422 14.0749C21.8613 13.9287 21.642 13.8384 21.411 13.8151C21.2092 13.7814 20.7021 13.7658 20.7021 13.7658V13.4021H26.2667C26.8954 13.4085 27.5053 13.619 28.0051 14.0022C28.3205 14.2496 28.5771 14.5645 28.7561 14.9239C28.9351 15.2834 29.032 15.6785 29.0399 16.0803C29.0473 16.5482 28.9177 17.0079 28.6673 17.4025C28.4503 17.7784 28.1579 18.1048 27.8085 18.3611C27.3946 18.678 26.8668 18.8104 26.1916 18.917C26.6769 19.0331 27.1359 19.2402 27.5446 19.5274C27.829 19.7238 28.0645 19.9833 28.2327 20.2859C28.4791 20.7777 28.6533 21.3027 28.7501 21.8445C28.9079 22.5069 28.895 23.0187 28.9881 23.3018C29.0195 23.4396 29.0981 23.5619 29.2102 23.6473C29.3222 23.7328 29.4606 23.776 29.6012 23.7694C29.7002 23.7606 29.7946 23.7233 29.873 23.662C29.9515 23.6007 30.0107 23.5181 30.0436 23.4239C30.0776 23.3442 30.1045 23.2616 30.1238 23.1771L30.5558 23.1953ZM23.8711 18.5637H24.818C25.7208 18.5637 26.3391 18.3948 26.8487 18.0597C27.3583 17.7246 27.6248 17.1272 27.6248 16.2673C27.648 15.7838 27.5492 15.3022 27.3376 14.8672C27.1746 14.5503 26.9065 14.3004 26.5797 14.1606C26.1407 14.0177 25.6801 13.9535 25.2189 13.971C24.6162 13.971 24.2411 14.0126 24.0988 14.0983C24.0265 14.1417 23.9678 14.2047 23.9294 14.28C23.891 14.3553 23.8744 14.44 23.8815 14.5243L23.8711 18.5637Z" fill="url(#paint24_linear_553_716)"/>
<path d="M33.2051 21.4301L33.322 20.174H33.8731L33.925 24.1357H33.4338C33.1999 22.6158 33.005 22.0465 32.1862 21.4171C31.5049 20.8697 30.6596 20.5697 29.7873 20.5657C29.1663 20.5752 28.5658 20.791 28.0797 21.1794C27.5343 21.6205 27.131 22.2139 26.9205 22.8848C26.6467 23.6178 26.5099 24.6493 26.5099 25.9795C26.5099 27.2696 26.6467 28.2785 26.9205 29.0063C27.1311 29.6436 27.5266 30.203 28.0563 30.6124C28.5533 30.9636 29.1487 31.1465 29.7561 31.1347C30.6372 31.1347 31.3519 31.0825 31.7912 30.5497C32.2304 30.017 32.1966 29.2675 32.1966 28.4892V27.6718C32.2006 27.5965 32.1849 27.5215 32.1512 27.4542C32.1174 27.3869 32.0668 27.3296 32.0043 27.2879C31.8004 27.1598 31.5663 27.0886 31.326 27.0816L30.4293 27.0529V26.6246H34.7048V27.0868L34.4682 27.1051C34.2525 27.1071 34.0424 27.1745 33.8653 27.2983C33.8044 27.3504 33.7563 27.416 33.7247 27.4898C33.6932 27.5636 33.679 27.6438 33.6833 27.724V31.6988H33.2155L32.8802 30.3931C32.3396 30.9154 32.0277 31.2157 31.4169 31.4533C30.9068 31.6454 30.3622 31.7272 29.8185 31.6936C28.8955 31.6998 27.9888 31.4494 27.1986 30.9702C26.3893 30.48 25.7301 29.7752 25.2935 28.9332C24.8321 28.0088 24.5918 26.9889 24.5918 25.9547C24.5918 24.9205 24.8321 23.9006 25.2935 22.9762C25.7415 22.1226 26.4047 21.4021 27.2168 20.8869C27.9467 20.3925 28.8032 20.1204 29.6833 20.1035C30.185 20.0965 30.6841 20.1751 31.1596 20.3359C31.8914 20.5973 32.5807 20.966 33.2051 21.4301Z" fill="url(#paint25_linear_553_716)"/>
</g>
</g>
<defs>
<linearGradient id="paint0_linear_553_716" x1="-10.8748" y1="21.6873" x2="41.1886" y2="46.9588" gradientUnits="userSpaceOnUse">
<stop stop-color="#BDA976"/>
<stop offset="0.44" stop-color="#EDECBB"/>
<stop offset="1" stop-color="#C1953E"/>
</linearGradient>
<linearGradient id="paint1_linear_553_716" x1="-7.13839" y1="15.8934" x2="44.3997" y2="40.0921" gradientUnits="userSpaceOnUse">
<stop stop-color="#BDA976"/>
<stop offset="0.44" stop-color="#EDECBB"/>
<stop offset="1" stop-color="#C1953E"/>
</linearGradient>
<linearGradient id="paint2_linear_553_716" x1="-11.9341" y1="19.5737" x2="41.6125" y2="46.5935" gradientUnits="userSpaceOnUse">
<stop stop-color="#BDA976"/>
<stop offset="0.44" stop-color="#EDECBB"/>
<stop offset="1" stop-color="#C1953E"/>
</linearGradient>
<linearGradient id="paint3_linear_553_716" x1="-5.13187" y1="9.59117" x2="47.0173" y2="34.8673" gradientUnits="userSpaceOnUse">
<stop stop-color="#BDA976"/>
<stop offset="0.44" stop-color="#EDECBB"/>
<stop offset="1" stop-color="#C1953E"/>
</linearGradient>
<linearGradient id="paint4_linear_553_716" x1="-4.13282" y1="7.91807" x2="47.6817" y2="33.2286" gradientUnits="userSpaceOnUse">
<stop stop-color="#BDA976"/>
<stop offset="0.44" stop-color="#EDECBB"/>
<stop offset="1" stop-color="#C1953E"/>
</linearGradient>
<linearGradient id="paint5_linear_553_716" x1="-7.67016" y1="12.1244" x2="45.4063" y2="38.4073" gradientUnits="userSpaceOnUse">
<stop stop-color="#BDA976"/>
<stop offset="0.44" stop-color="#EDECBB"/>
<stop offset="1" stop-color="#C1953E"/>
</linearGradient>
<linearGradient id="paint6_linear_553_716" x1="2.54112" y1="-8.99431" x2="56.0175" y2="17.4042" gradientUnits="userSpaceOnUse">
<stop stop-color="#BDA976"/>
<stop offset="0.44" stop-color="#EDECBB"/>
<stop offset="1" stop-color="#C1953E"/>
</linearGradient>
<linearGradient id="paint7_linear_553_716" x1="-0.383518" y1="-3.80364" x2="52.7036" y2="23.8373" gradientUnits="userSpaceOnUse">
<stop stop-color="#BDA976"/>
<stop offset="0.44" stop-color="#EDECBB"/>
<stop offset="1" stop-color="#C1953E"/>
</linearGradient>
<linearGradient id="paint8_linear_553_716" x1="1.29132" y1="-1.25657" x2="52.723" y2="22.8364" gradientUnits="userSpaceOnUse">
<stop stop-color="#BDA976"/>
<stop offset="0.44" stop-color="#EDECBB"/>
<stop offset="1" stop-color="#C1953E"/>
</linearGradient>
<linearGradient id="paint9_linear_553_716" x1="-1.33714" y1="3.43872" x2="50.0056" y2="28.2964" gradientUnits="userSpaceOnUse">
<stop stop-color="#BDA976"/>
<stop offset="0.44" stop-color="#EDECBB"/>
<stop offset="1" stop-color="#C1953E"/>
</linearGradient>
<linearGradient id="paint10_linear_553_716" x1="8.08926" y1="-7.33688" x2="56.2632" y2="12.2827" gradientUnits="userSpaceOnUse">
<stop stop-color="#BDA976"/>
<stop offset="0.44" stop-color="#EDECBB"/>
<stop offset="1" stop-color="#C1953E"/>
</linearGradient>
<linearGradient id="paint11_linear_553_716" x1="0.534577" y1="-1.5587" x2="52.3955" y2="24.0662" gradientUnits="userSpaceOnUse">
<stop stop-color="#BDA976"/>
<stop offset="0.44" stop-color="#EDECBB"/>
<stop offset="1" stop-color="#C1953E"/>
</linearGradient>
<linearGradient id="paint12_linear_553_716" x1="-15.7301" y1="31.5185" x2="36.3738" y2="56.8414" gradientUnits="userSpaceOnUse">
<stop stop-color="#BDA976"/>
<stop offset="0.44" stop-color="#EDECBB"/>
<stop offset="1" stop-color="#C1953E"/>
</linearGradient>
<linearGradient id="paint13_linear_553_716" x1="-12.2006" y1="25.2665" x2="39.4018" y2="49.5427" gradientUnits="userSpaceOnUse">
<stop stop-color="#BDA976"/>
<stop offset="0.44" stop-color="#EDECBB"/>
<stop offset="1" stop-color="#C1953E"/>
</linearGradient>
<linearGradient id="paint14_linear_553_716" x1="-14.458" y1="26.0354" x2="39.1011" y2="53.0459" gradientUnits="userSpaceOnUse">
<stop stop-color="#BDA976"/>
<stop offset="0.44" stop-color="#EDECBB"/>
<stop offset="1" stop-color="#C1953E"/>
</linearGradient>
<linearGradient id="paint15_linear_553_716" x1="-10.6903" y1="21.3933" x2="41.2674" y2="46.8364" gradientUnits="userSpaceOnUse">
<stop stop-color="#BDA976"/>
<stop offset="0.44" stop-color="#EDECBB"/>
<stop offset="1" stop-color="#C1953E"/>
</linearGradient>
<linearGradient id="paint16_linear_553_716" x1="-12.7516" y1="23.9584" x2="40.2221" y2="50.1703" gradientUnits="userSpaceOnUse">
<stop stop-color="#BDA976"/>
<stop offset="0.44" stop-color="#EDECBB"/>
<stop offset="1" stop-color="#C1953E"/>
</linearGradient>
<linearGradient id="paint17_linear_553_716" x1="-4.24064" y1="7.34633" x2="49.2056" y2="33.6973" gradientUnits="userSpaceOnUse">
<stop stop-color="#BDA976"/>
<stop offset="0.44" stop-color="#EDECBB"/>
<stop offset="1" stop-color="#C1953E"/>
</linearGradient>
<linearGradient id="paint18_linear_553_716" x1="-6.04597" y1="10.3153" x2="46.7425" y2="37.772" gradientUnits="userSpaceOnUse">
<stop stop-color="#BDA976"/>
<stop offset="0.44" stop-color="#EDECBB"/>
<stop offset="1" stop-color="#C1953E"/>
</linearGradient>
<linearGradient id="paint19_linear_553_716" x1="-6.68926" y1="13.6842" x2="44.7974" y2="37.7564" gradientUnits="userSpaceOnUse">
<stop stop-color="#BDA976"/>
<stop offset="0.44" stop-color="#EDECBB"/>
<stop offset="1" stop-color="#C1953E"/>
</linearGradient>
<linearGradient id="paint20_linear_553_716" x1="-8.91028" y1="18.2132" x2="42.5394" y2="43.0863" gradientUnits="userSpaceOnUse">
<stop stop-color="#BDA976"/>
<stop offset="0.44" stop-color="#EDECBB"/>
<stop offset="1" stop-color="#C1953E"/>
</linearGradient>
<linearGradient id="paint21_linear_553_716" x1="-2.49163" y1="7.31379" x2="45.6823" y2="26.9334" gradientUnits="userSpaceOnUse">
<stop stop-color="#BDA976"/>
<stop offset="0.44" stop-color="#EDECBB"/>
<stop offset="1" stop-color="#C1953E"/>
</linearGradient>
<linearGradient id="paint22_linear_553_716" x1="-8.70923" y1="17.0579" x2="43.0751" y2="42.5825" gradientUnits="userSpaceOnUse">
<stop stop-color="#BDA976"/>
<stop offset="0.44" stop-color="#EDECBB"/>
<stop offset="1" stop-color="#C1953E"/>
</linearGradient>
<linearGradient id="paint23_linear_553_716" x1="27.4438" y1="1.15019" x2="27.4438" y2="41.8748" gradientUnits="userSpaceOnUse">
<stop stop-color="#CCC2A5"/>
<stop offset="0.22" stop-color="#E6DAC2"/>
<stop offset="0.39" stop-color="#EAE7D1"/>
<stop offset="0.42" stop-color="#A9A28E"/>
<stop offset="0.44" stop-color="#756A58"/>
<stop offset="0.45" stop-color="#4F4232"/>
<stop offset="0.47" stop-color="#382A1B"/>
<stop offset="0.48" stop-color="#302112"/>
<stop offset="0.62" stop-color="#543517"/>
<stop offset="0.86" stop-color="#A98955"/>
<stop offset="1" stop-color="#CAA74B"/>
</linearGradient>
<linearGradient id="paint24_linear_553_716" x1="22.3035" y1="16.3297" x2="30.9554" y2="28.6064" gradientUnits="userSpaceOnUse">
<stop stop-color="#BDA976"/>
<stop offset="0.44" stop-color="#EDECBB"/>
<stop offset="1" stop-color="#C1953E"/>
</linearGradient>
<linearGradient id="paint25_linear_553_716" x1="23.3208" y1="15.6246" x2="32.0183" y2="27.9616" gradientUnits="userSpaceOnUse">
<stop stop-color="#BDA976"/>
<stop offset="0.44" stop-color="#EDECBB"/>
<stop offset="1" stop-color="#C1953E"/>
</linearGradient>
<clipPath id="clip0_553_716">
<rect width="53.6765" height="50" fill="white" transform="translate(0.735352)"/>
</clipPath>
<clipPath id="clip1_553_716">
<rect width="53.6765" height="50" fill="white" transform="translate(0.735352)"/>
</clipPath>
</defs>
</svg>
