<svg width="24" height="25" viewBox="0 0 24 25" fill="none" xmlns="http://www.w3.org/2000/svg">
<path fill-rule="evenodd" clip-rule="evenodd" d="M2.80208 8.85342C2.52193 11.4563 2.53442 14.4583 2.92424 17.0506C3.13994 18.485 4.31061 19.5847 5.75568 19.7103L7.26591 19.8416C10.415 20.1153 13.5818 20.1153 16.7309 19.8416L18.2411 19.7103C19.6862 19.5847 20.8568 18.485 21.0725 17.0506C21.4624 14.4583 21.4749 11.4565 21.1947 8.85357C21.1585 8.55181 21.1178 8.25046 21.0725 7.94961C20.8568 6.51522 19.6862 5.41557 18.2411 5.28996L16.7309 5.15867C13.5818 4.88493 10.415 4.88493 7.26591 5.15867L5.75568 5.28996C4.31061 5.41557 3.13994 6.51522 2.92424 7.94961C2.87901 8.25041 2.83829 8.55171 2.80208 8.85342ZM7.39582 6.65304C10.4584 6.38681 13.5384 6.38681 16.601 6.65304L18.1112 6.78432C18.8655 6.84989 19.4766 7.42391 19.5892 8.17267C19.6009 8.25042 19.6123 8.32822 19.6233 8.40604L14.0623 11.4955C12.7787 12.2086 11.218 12.2086 9.93437 11.4955L4.37343 8.40608C4.38449 8.32824 4.39587 8.25043 4.40757 8.17267C4.52016 7.42391 5.13125 6.84989 5.88558 6.78432L7.39582 6.65304ZM19.8069 10.02C20.0009 12.2878 19.9283 14.5726 19.5892 16.8276C19.4766 17.5763 18.8655 18.1503 18.1112 18.2159L16.601 18.3472C13.5384 18.6134 10.4584 18.6134 7.39582 18.3472L5.88558 18.2159C5.13125 18.1503 4.52016 17.5763 4.40757 16.8276C4.06848 14.5726 3.99592 12.2878 4.18988 10.02L9.20591 12.8067C10.9425 13.7715 13.0542 13.7715 14.7908 12.8067L19.8069 10.02Z" fill="white"/>
</svg>
