<svg width="24" height="25" viewBox="0 0 24 25" fill="none" xmlns="http://www.w3.org/2000/svg">
<path fill-rule="evenodd" clip-rule="evenodd" d="M7.75 8C7.75 5.65279 9.65279 3.75 12 3.75C14.3472 3.75 16.25 5.65279 16.25 8C16.25 10.3472 14.3472 12.25 12 12.25C9.65279 12.25 7.75 10.3472 7.75 8ZM12 5.25C10.4812 5.25 9.25 6.48122 9.25 8C9.25 9.51878 10.4812 10.75 12 10.75C13.5188 10.75 14.75 9.51878 14.75 8C14.75 6.48122 13.5188 5.25 12 5.25Z" fill="white"/>
<path fill-rule="evenodd" clip-rule="evenodd" d="M8 15.25C6.75736 15.25 5.75 16.2574 5.75 17.5V18.6883C5.75 18.7064 5.76311 18.7218 5.78097 18.7247C9.89972 19.3972 14.1003 19.3972 18.219 18.7247C18.2369 18.7218 18.25 18.7064 18.25 18.6883V17.5C18.25 16.2574 17.2426 15.25 16 15.25H15.6591C15.6328 15.25 15.6066 15.2542 15.5815 15.2623L14.716 15.545C12.9512 16.1212 11.0488 16.1212 9.28398 15.545L8.41847 15.2623C8.39342 15.2542 8.36722 15.25 8.34087 15.25H8ZM4.25 17.5C4.25 15.4289 5.92893 13.75 8 13.75H8.34087C8.52536 13.75 8.70869 13.7792 8.88407 13.8364L9.74959 14.1191C11.2119 14.5965 12.7881 14.5965 14.2504 14.1191L15.1159 13.8364C15.2913 13.7792 15.4746 13.75 15.6591 13.75H16C18.0711 13.75 19.75 15.4289 19.75 17.5V18.6883C19.75 19.4415 19.2041 20.0837 18.4607 20.2051C14.1819 20.9037 9.8181 20.9037 5.53927 20.2051C4.79588 20.0837 4.25 19.4415 4.25 18.6883V17.5Z" fill="white"/>
</svg>
