<svg width="24" height="25" viewBox="0 0 24 25" fill="none" xmlns="http://www.w3.org/2000/svg">
<path fill-rule="evenodd" clip-rule="evenodd" d="M14.4635 15.5242C11.8132 17.6468 7.93381 17.4798 5.47703 15.023C2.84099 12.3869 2.84099 8.11307 5.47703 5.47703C8.11307 2.84099 12.3869 2.84099 15.023 5.47703C17.4798 7.93381 17.6468 11.8132 15.5242 14.4635L20.6798 19.6191C20.9727 19.912 20.9727 20.3869 20.6798 20.6798C20.3869 20.9727 19.912 20.9727 19.6191 20.6798L14.4635 15.5242ZM6.53769 13.9623C4.48744 11.9121 4.48744 8.58794 6.53769 6.53769C8.58794 4.48744 11.9121 4.48744 13.9623 6.53769C16.0111 8.58644 16.0126 11.9072 13.9668 13.9578C13.9653 13.9593 13.9638 13.9608 13.9623 13.9623C13.9608 13.9638 13.9593 13.9653 13.9578 13.9668C11.9072 16.0126 8.58644 16.0111 6.53769 13.9623Z" fill="white"/>
</svg>
