<svg width="32" height="32" viewBox="0 0 32 32" fill="none" xmlns="http://www.w3.org/2000/svg">
<path fill-rule="evenodd" clip-rule="evenodd" d="M20.0285 4.45791C20.7064 4.3418 21.4655 4.30303 22.1798 4.42389C23.4556 4.63973 24.6341 5.2327 25.5656 6.12171C26.1746 6.13549 26.773 6.01552 27.3025 5.84451C27.7507 5.69977 28.1292 5.52501 28.3945 5.38683C28.5264 5.31812 28.6283 5.25951 28.6945 5.21983C28.7276 5.20002 28.7516 5.18503 28.7659 5.17597L28.7786 5.16789C29.1743 4.90425 29.7013 4.95556 30.0384 5.29091C30.3757 5.62632 30.43 6.15289 30.1683 6.55009C29.8914 6.97048 29.5069 7.71991 29.0762 8.55959C29.0084 8.69161 28.9396 8.82587 28.8698 8.96143C28.6227 9.44138 28.3694 9.92647 28.1333 10.3426C27.9851 10.604 27.8265 10.8693 27.6666 11.0985V11.4636C27.6768 12.8044 27.523 14.1382 27.2109 15.4359C27.0145 16.2523 26.7555 17.0544 26.4351 17.8349C25.6052 19.8572 24.3807 21.6937 22.8331 23.2374C21.2854 24.7811 19.4457 26.0009 17.4214 26.8256C15.3988 27.6496 13.2325 28.0626 11.0487 28.0407C7.88296 28.0435 4.7838 27.1314 2.12418 25.4142C1.73244 25.1612 1.56751 24.6711 1.72663 24.2328C1.88574 23.7945 2.32667 23.5244 2.78943 23.5816C3.18991 23.6312 3.59312 23.6554 3.99666 23.6541C5.44659 23.65 6.86891 23.3297 8.16739 22.7261C7.75466 22.5382 7.36062 22.3066 6.99241 22.0335C5.91012 21.231 5.10491 20.1111 4.68882 18.8296C4.58069 18.4965 4.65461 18.1312 4.88369 17.8665C4.8878 17.8617 4.89194 17.857 4.89612 17.8524C4.65142 17.6342 4.42245 17.3966 4.21165 17.1411C3.26323 15.9915 2.74099 14.5496 2.73328 13.0592L2.73326 13.0541L2.73327 12.9874C2.73327 12.6329 2.92094 12.3049 3.22655 12.1253C3.30401 12.0798 3.38612 12.0455 3.47059 12.0225C3.01948 11.1224 2.78489 10.1285 2.7866 9.12012C2.78607 7.97777 3.08447 6.85514 3.65215 5.86381C3.81603 5.57763 4.11047 5.39064 4.43917 5.36401C4.76788 5.33737 5.08858 5.47451 5.2964 5.73057C6.5798 7.31192 8.18152 8.6056 9.9975 9.52756C10.931 10.0015 11.9104 10.3718 12.9182 10.6337C13.4831 10.7805 14.057 10.8933 14.6367 10.9712C14.6112 10.0069 14.8016 9.04303 15.2012 8.15245C15.7875 6.84602 16.7908 5.77111 18.0537 5.09632C18.5886 4.81055 19.2986 4.58294 20.0285 4.45791ZM4.99097 14.5212C5.16383 15.0078 5.42099 15.4642 5.7544 15.8683C6.40949 16.6624 7.31876 17.2058 8.32838 17.4066C8.77809 17.4961 9.10935 17.8799 9.13204 18.3379C9.15474 18.7959 8.86308 19.2106 8.42441 19.3441C8.06109 19.4547 7.68885 19.5317 7.31238 19.5745C7.56115 19.8952 7.85379 20.1824 8.18367 20.427C8.93192 20.9819 9.83451 21.2897 10.7659 21.3076C11.1884 21.3157 11.5602 21.5886 11.6947 21.9893C11.8291 22.39 11.6971 22.8319 11.365 23.0933C9.96609 24.194 8.34849 24.9615 6.63442 25.3534C8.05507 25.8083 9.54499 26.0426 11.0521 26.0407L11.0637 26.0407C12.9837 26.0607 14.8885 25.6979 16.6668 24.9734C18.4451 24.249 20.0612 23.1774 21.4207 21.8214C22.7802 20.4654 23.8559 18.852 24.5849 17.0756C24.8663 16.39 25.0938 15.6854 25.2663 14.9682C25.5408 13.8271 25.6759 12.6542 25.6666 11.4752L25.6666 11.4674V10.7607C25.6666 10.5183 25.7547 10.2841 25.9145 10.1017C26.0069 9.99631 26.1684 9.7529 26.3938 9.3557C26.608 8.9782 26.845 8.52499 27.0916 8.04608C27.1065 8.01711 27.1214 7.988 27.1365 7.95875C26.497 8.09761 25.7723 8.17039 25.0125 8.08829C24.7719 8.06228 24.5489 7.9499 24.3848 7.77198C23.7143 7.04486 22.8214 6.56085 21.8462 6.39587C21.4135 6.32266 20.8904 6.33942 20.3662 6.4292C19.7967 6.52675 19.3011 6.69743 18.9962 6.86033C18.1239 7.32642 17.4309 8.06888 17.0259 8.97126C16.621 9.87365 16.527 10.8849 16.7588 11.8464C16.8326 12.153 16.7576 12.4764 16.5563 12.7191C16.355 12.9619 16.051 13.0954 15.7361 13.0795C14.6115 13.0226 13.4989 12.8511 12.4151 12.5694C11.2685 12.2714 10.1542 11.8501 9.09212 11.3109C7.52841 10.517 6.10434 9.48088 4.87122 8.24396C4.81497 8.53145 4.78641 8.82482 4.7866 9.12008L4.7866 9.12264C4.78521 9.85693 4.96541 10.5802 5.31115 11.228C5.6569 11.8758 6.15747 12.428 6.76828 12.8356C7.13898 13.0829 7.30128 13.5457 7.16628 13.9704C7.03127 14.3951 6.63154 14.6792 6.18607 14.667C5.78261 14.6561 5.38253 14.607 4.99097 14.5212Z" fill="white"/>
</svg>
