<svg width="32" height="32" viewBox="0 0 32 32" fill="none" xmlns="http://www.w3.org/2000/svg">
<path fill-rule="evenodd" clip-rule="evenodd" d="M14.3389 12.1424C14.1005 11.9952 13.8035 11.9913 13.5615 12.1323C13.3195 12.2733 13.1699 12.5373 13.1699 12.8234V19.1766C13.1699 19.4627 13.3195 19.7267 13.5615 19.8677C13.8035 20.0087 14.1005 20.0048 14.3389 19.8576L19.4848 16.681C19.7172 16.5375 19.8595 16.279 19.8595 16C19.8595 15.721 19.7172 15.4625 19.4848 15.319L14.3389 12.1424ZM17.5874 16L14.7137 17.774V14.226L17.5874 16Z" fill="white"/>
<path fill-rule="evenodd" clip-rule="evenodd" d="M21.1775 8.20805C17.7312 7.93065 14.2691 7.93065 10.8228 8.20805L8.51676 8.39368C7.11446 8.50655 5.96727 9.58788 5.73546 11.0153C5.19951 14.3156 5.19951 17.6845 5.73546 20.9847C5.96727 22.4121 7.11446 23.4935 8.51676 23.6063L10.8228 23.792C14.2691 24.0694 17.7312 24.0694 21.1775 23.792L23.4836 23.6063C24.8859 23.4935 26.0331 22.4121 26.2649 20.9847C26.8008 17.6845 26.8008 14.3156 26.2649 11.0153C26.0331 9.58788 24.8859 8.50655 23.4836 8.39368L21.1775 8.20805ZM10.9432 9.79153C14.3094 9.52057 17.691 9.52057 21.0571 9.79153L23.3632 9.97715C24.0585 10.0331 24.6273 10.5693 24.7422 11.277C25.25 14.404 25.25 17.596 24.7422 20.723C24.6273 21.4307 24.0585 21.9669 23.3632 22.0229L21.0571 22.2085C17.691 22.4794 14.3094 22.4794 10.9432 22.2085L8.63717 22.0229C7.94186 21.9669 7.37304 21.4307 7.2581 20.723C6.75029 17.596 6.75029 14.404 7.2581 11.277C7.37304 10.5693 7.94186 10.0331 8.63717 9.97715L10.9432 9.79153Z" fill="white"/>
</svg>
